<svg xmlns="http://www.w3.org/2000/svg" xmlns:xlink="http://www.w3.org/1999/xlink" preserveAspectRatio="xMidYMid" width="674" height="670" viewBox="0 0 674 670">
  <defs>
    <style>
      .cls-1 {
        fill: #000;
      }

      .cls-1, .cls-2 {
        stroke: #fff;
        stroke-width: 1px;
        fill-rule: evenodd;
      }

      .cls-2 {
        fill: none;
      }
    </style>
  </defs>
  <g>
    <path d="M25.628,258.738 L27.810,245.922 L73.722,280.114 L71.036,295.887 L16.396,312.957 L18.578,300.142 L58.725,290.747 L60.403,280.889 L25.628,258.738 Z" class="cls-1"/>
    <path d="M12.999,297.163 L14.174,290.262 L42.301,285.922 L43.141,280.993 L18.202,266.603 L19.545,258.716 L56.460,280.218 L54.781,290.076 L12.999,297.163 Z" class="cls-1"/>
    <path d="M26.107,309.539 L25.122,309.371 L26.968,298.527 L27.954,298.695 L26.107,309.539 Z" class="cls-2"/>
    <path d="M29.233,309.057 L28.247,308.889 L30.093,298.045 L31.079,298.213 L29.233,309.057 Z" class="cls-2"/>
    <path d="M32.526,307.589 L31.540,307.421 L33.219,297.563 L34.204,297.730 L32.526,307.589 Z" class="cls-2"/>
    <path d="M35.651,307.106 L34.665,306.938 L36.512,296.095 L37.498,296.262 L35.651,307.106 Z" class="cls-2"/>
    <path d="M38.776,306.624 L37.791,306.456 L39.637,295.612 L40.623,295.780 L38.776,306.624 Z" class="cls-2"/>
    <path d="M42.070,305.156 L41.084,304.988 L42.930,294.144 L43.916,294.312 L42.070,305.156 Z" class="cls-2"/>
    <path d="M45.363,303.688 L44.377,303.520 L46.055,293.662 L47.041,293.830 L45.363,303.688 Z" class="cls-2"/>
    <path d="M48.656,302.220 L47.670,302.052 L49.181,293.180 L50.167,293.348 L48.656,302.220 Z" class="cls-2"/>
    <path d="M51.781,301.738 L50.795,301.570 L52.306,292.698 L53.292,292.865 L51.781,301.738 Z" class="cls-2"/>
    <path d="M54.906,301.255 L53.921,301.088 L55.431,292.215 L56.417,292.383 L54.906,301.255 Z" class="cls-2"/>
    <path d="M58.200,299.787 L57.214,299.620 L61.914,272.017 L62.900,272.185 L58.200,299.787 Z" class="cls-2"/>
    <path d="M18.285,289.948 L17.299,289.780 L20.992,268.092 L21.978,268.260 L18.285,289.948 Z" class="cls-2"/>
    <path d="M58.767,278.582 L57.781,278.414 L59.292,269.542 L60.278,269.709 L58.767,278.582 Z" class="cls-2"/>
    <path d="M55.978,277.092 L54.992,276.925 L56.670,267.066 L57.656,267.234 L55.978,277.092 Z" class="cls-2"/>
    <path d="M53.188,275.603 L52.202,275.435 L53.881,265.577 L54.867,265.745 L53.188,275.603 Z" class="cls-2"/>
    <path d="M50.566,273.128 L49.580,272.960 L51.091,264.088 L52.077,264.256 L50.566,273.128 Z" class="cls-2"/>
    <path d="M47.777,271.638 L46.791,271.471 L48.469,261.612 L49.455,261.780 L47.777,271.638 Z" class="cls-2"/>
    <path d="M44.987,270.149 L44.001,269.981 L45.848,259.137 L46.833,259.305 L44.987,270.149 Z" class="cls-2"/>
    <path d="M42.365,267.674 L41.380,267.506 L43.058,257.648 L44.044,257.816 L42.365,267.674 Z" class="cls-2"/>
    <path d="M39.576,266.185 L38.590,266.017 L40.269,256.159 L41.254,256.326 L39.576,266.185 Z" class="cls-2"/>
    <path d="M36.786,264.695 L35.800,264.527 L37.647,253.683 L38.633,253.851 L36.786,264.695 Z" class="cls-2"/>
    <path d="M33.997,263.206 L33.011,263.038 L34.857,252.194 L35.843,252.362 L33.997,263.206 Z" class="cls-2"/>
  </g>
</svg>
