<svg xmlns="http://www.w3.org/2000/svg" xmlns:xlink="http://www.w3.org/1999/xlink" preserveAspectRatio="xMidYMid" width="674" height="670" viewBox="0 0 674 670">
  <defs>
    <style>
      .cls-1 {
        fill: #000;
      }

      .cls-1, .cls-2 {
        stroke: #fff;
        stroke-width: 1px;
        fill-rule: evenodd;
      }

      .cls-2 {
        fill: none;
      }
    </style>
  </defs>
  <g>
    <path d="M653.850,301.602 L655.825,314.451 L601.467,296.501 L599.037,280.687 L645.495,247.241 L647.470,260.090 L612.341,281.677 L613.861,291.561 L653.850,301.602 Z" class="cls-1"/>
    <path d="M653.704,261.155 L654.767,268.074 L629.448,281.071 L630.208,286.013 L658.413,291.795 L659.629,299.702 L617.814,290.953 L616.295,281.069 L653.704,261.155 Z" class="cls-1"/>
    <path d="M637.359,253.550 L638.347,253.398 L640.018,264.270 L639.030,264.422 L637.359,253.550 Z" class="cls-2"/>
    <path d="M634.546,254.994 L635.534,254.842 L637.205,265.714 L636.217,265.866 L634.546,254.994 Z" class="cls-2"/>
    <path d="M631.884,257.427 L632.873,257.275 L634.392,267.159 L633.403,267.311 L631.884,257.427 Z" class="cls-2"/>
    <path d="M629.071,258.871 L630.059,258.719 L631.730,269.591 L630.742,269.743 L629.071,258.871 Z" class="cls-2"/>
    <path d="M626.258,260.315 L627.246,260.163 L628.917,271.035 L627.929,271.187 L626.258,260.315 Z" class="cls-2"/>
    <path d="M623.596,262.747 L624.585,262.595 L626.256,273.468 L625.267,273.620 L623.596,262.747 Z" class="cls-2"/>
    <path d="M620.935,265.180 L621.923,265.028 L623.443,274.912 L622.454,275.064 L620.935,265.180 Z" class="cls-2"/>
    <path d="M618.274,267.613 L619.262,267.461 L620.629,276.356 L619.641,276.508 L618.274,267.613 Z" class="cls-2"/>
    <path d="M615.460,269.057 L616.449,268.905 L617.816,277.800 L616.828,277.952 L615.460,269.057 Z" class="cls-2"/>
    <path d="M612.647,270.501 L613.636,270.349 L615.003,279.244 L614.014,279.396 L612.647,270.501 Z" class="cls-2"/>
    <path d="M609.986,272.933 L610.974,272.781 L615.228,300.456 L614.240,300.608 L609.986,272.933 Z" class="cls-2"/>
    <path d="M650.966,269.670 L651.954,269.518 L655.296,291.263 L654.308,291.414 L650.966,269.670 Z" class="cls-2"/>
    <path d="M616.141,293.234 L617.130,293.082 L618.497,301.977 L617.509,302.129 L616.141,293.234 Z" class="cls-2"/>
    <path d="M619.258,293.766 L620.247,293.615 L621.766,303.498 L620.778,303.650 L619.258,293.766 Z" class="cls-2"/>
    <path d="M622.375,294.299 L623.364,294.147 L624.883,304.031 L623.895,304.183 L622.375,294.299 Z" class="cls-2"/>
    <path d="M625.645,295.820 L626.633,295.668 L628.000,304.564 L627.012,304.716 L625.645,295.820 Z" class="cls-2"/>
    <path d="M628.762,296.353 L629.750,296.201 L631.269,306.085 L630.281,306.237 L628.762,296.353 Z" class="cls-2"/>
    <path d="M631.879,296.885 L632.867,296.733 L634.538,307.606 L633.550,307.758 L631.879,296.885 Z" class="cls-2"/>
    <path d="M635.148,298.406 L636.136,298.255 L637.655,308.138 L636.667,308.290 L635.148,298.406 Z" class="cls-2"/>
    <path d="M638.265,298.939 L639.253,298.787 L640.772,308.671 L639.784,308.823 L638.265,298.939 Z" class="cls-2"/>
    <path d="M641.382,299.472 L642.370,299.320 L644.041,310.192 L643.053,310.344 L641.382,299.472 Z" class="cls-2"/>
    <path d="M644.499,300.004 L645.487,299.852 L647.159,310.725 L646.170,310.877 L644.499,300.004 Z" class="cls-2"/>
  </g>
</svg>
