<svg xmlns="http://www.w3.org/2000/svg" xmlns:xlink="http://www.w3.org/1999/xlink" preserveAspectRatio="xMidYMid" width="674" height="670" viewBox="0 0 674 670">
  <defs>
    <style>
      .cls-1 {
        fill: #000;
      }

      .cls-1, .cls-2 {
        stroke: #fff;
        stroke-width: 1px;
        fill-rule: evenodd;
      }

      .cls-2 {
        fill: none;
      }
    </style>
  </defs>
  <g>
    <path d="M199.139,624.009 L187.071,619.174 L230.173,581.502 L245.025,587.452 L250.194,644.464 L238.126,639.629 L237.406,598.404 L228.123,594.685 L199.139,624.009 Z" class="cls-1"/>
    <path d="M234.038,644.455 L227.540,641.851 L229.227,613.441 L224.586,611.581 L205.262,632.926 L197.835,629.951 L226.635,598.398 L235.918,602.117 L234.038,644.455 Z" class="cls-1"/>
    <path d="M248.899,634.250 L248.527,635.178 L238.316,631.087 L238.688,630.159 L248.899,634.250 Z" class="cls-2"/>
    <path d="M249.087,631.093 L248.715,632.021 L238.504,627.930 L238.876,627.002 L249.087,631.093 Z" class="cls-2"/>
    <path d="M248.346,627.564 L247.974,628.492 L238.691,624.774 L239.063,623.845 L248.346,627.564 Z" class="cls-2"/>
    <path d="M248.533,624.407 L248.161,625.336 L237.950,621.245 L238.322,620.317 L248.533,624.407 Z" class="cls-2"/>
    <path d="M248.721,621.251 L248.349,622.179 L238.138,618.088 L238.510,617.160 L248.721,621.251 Z" class="cls-2"/>
    <path d="M247.980,617.722 L247.608,618.650 L237.397,614.560 L237.769,613.631 L247.980,617.722 Z" class="cls-2"/>
    <path d="M247.239,614.194 L246.867,615.122 L237.584,611.403 L237.956,610.475 L247.239,614.194 Z" class="cls-2"/>
    <path d="M246.498,610.665 L246.126,611.593 L237.772,608.246 L238.144,607.318 L246.498,610.665 Z" class="cls-2"/>
    <path d="M246.686,607.508 L246.314,608.436 L237.959,605.089 L238.331,604.161 L246.686,607.508 Z" class="cls-2"/>
    <path d="M246.873,604.351 L246.501,605.280 L238.147,601.933 L238.519,601.004 L246.873,604.351 Z" class="cls-2"/>
    <path d="M246.132,600.823 L245.760,601.751 L219.769,591.338 L220.140,590.410 L246.132,600.823 Z" class="cls-2"/>
    <path d="M228.099,637.766 L227.728,638.695 L207.306,630.513 L207.677,629.585 L228.099,637.766 Z" class="cls-2"/>
    <path d="M225.523,595.798 L225.151,596.726 L216.796,593.379 L217.168,592.451 L225.523,595.798 Z" class="cls-2"/>
    <path d="M223.479,598.211 L223.107,599.139 L213.824,595.420 L214.196,594.492 L223.479,598.211 Z" class="cls-2"/>
    <path d="M221.435,600.624 L221.063,601.552 L211.780,597.833 L212.152,596.905 L221.435,600.624 Z" class="cls-2"/>
    <path d="M218.463,602.665 L218.091,603.593 L209.736,600.246 L210.108,599.318 L218.463,602.665 Z" class="cls-2"/>
    <path d="M216.419,605.078 L216.047,606.006 L206.764,602.287 L207.136,601.359 L216.419,605.078 Z" class="cls-2"/>
    <path d="M214.375,607.491 L214.003,608.419 L203.792,604.328 L204.164,603.400 L214.375,607.491 Z" class="cls-2"/>
    <path d="M211.402,609.532 L211.030,610.460 L201.748,606.741 L202.120,605.813 L211.402,609.532 Z" class="cls-2"/>
    <path d="M209.358,611.944 L208.986,612.873 L199.704,609.154 L200.076,608.225 L209.358,611.944 Z" class="cls-2"/>
    <path d="M207.314,614.357 L206.943,615.286 L196.732,611.195 L197.103,610.267 L207.314,614.357 Z" class="cls-2"/>
    <path d="M205.270,616.770 L204.899,617.699 L194.688,613.608 L195.059,612.679 L205.270,616.770 Z" class="cls-2"/>
  </g>
</svg>
