<svg xmlns="http://www.w3.org/2000/svg" xmlns:xlink="http://www.w3.org/1999/xlink" preserveAspectRatio="xMidYMid" width="674" height="670" viewBox="0 0 674 670">
  <defs>
    <style>
      .cls-1 {
        fill: #000;
      }

      .cls-1, .cls-2 {
        stroke: #fff;
        stroke-width: 1px;
        fill-rule: evenodd;
      }

      .cls-2 {
        fill: none;
      }
    </style>
  </defs>
  <g>
    <path d="M358.000,16.000 L371.000,16.000 L345.000,67.000 L329.000,67.000 L303.000,16.000 L316.000,16.000 L332.000,54.000 L342.000,54.000 L358.000,16.000 Z" class="cls-1"/>
    <path d="M318.000,10.000 L325.000,10.000 L334.000,37.000 L339.000,37.000 L349.000,10.000 L357.000,10.000 L342.000,50.000 L332.000,50.000 L318.000,10.000 Z" class="cls-1"/>
    <path d="M308.000,25.000 L308.000,24.000 L319.000,24.000 L319.000,25.000 L308.000,25.000 Z" class="cls-2"/>
    <path d="M309.000,28.000 L309.000,27.000 L320.000,27.000 L320.000,28.000 L309.000,28.000 Z" class="cls-2"/>
    <path d="M311.000,31.000 L311.000,30.000 L321.000,30.000 L321.000,31.000 L311.000,31.000 Z" class="cls-2"/>
    <path d="M312.000,34.000 L312.000,33.000 L323.000,33.000 L323.000,34.000 L312.000,34.000 Z" class="cls-2"/>
    <path d="M313.000,37.000 L313.000,36.000 L324.000,36.000 L324.000,37.000 L313.000,37.000 Z" class="cls-2"/>
    <path d="M315.000,40.000 L315.000,39.000 L326.000,39.000 L326.000,40.000 L315.000,40.000 Z" class="cls-2"/>
    <path d="M317.000,43.000 L317.000,42.000 L327.000,42.000 L327.000,43.000 L317.000,43.000 Z" class="cls-2"/>
    <path d="M319.000,46.000 L319.000,45.000 L328.000,45.000 L328.000,46.000 L319.000,46.000 Z" class="cls-2"/>
    <path d="M320.000,49.000 L320.000,48.000 L329.000,48.000 L329.000,49.000 L320.000,49.000 Z" class="cls-2"/>
    <path d="M321.000,52.000 L321.000,51.000 L330.000,51.000 L330.000,52.000 L321.000,52.000 Z" class="cls-2"/>
    <path d="M323.000,55.000 L323.000,54.000 L351.000,54.000 L351.000,55.000 L323.000,55.000 Z" class="cls-2"/>
    <path d="M326.000,14.000 L326.000,13.000 L348.000,13.000 L348.000,14.000 L326.000,14.000 Z" class="cls-2"/>
    <path d="M344.000,52.000 L344.000,51.000 L353.000,51.000 L353.000,52.000 L344.000,52.000 Z" class="cls-2"/>
    <path d="M345.000,49.000 L345.000,48.000 L355.000,48.000 L355.000,49.000 L345.000,49.000 Z" class="cls-2"/>
    <path d="M346.000,46.000 L346.000,45.000 L356.000,45.000 L356.000,46.000 L346.000,46.000 Z" class="cls-2"/>
    <path d="M348.000,43.000 L348.000,42.000 L357.000,42.000 L357.000,43.000 L348.000,43.000 Z" class="cls-2"/>
    <path d="M349.000,40.000 L349.000,39.000 L359.000,39.000 L359.000,40.000 L349.000,40.000 Z" class="cls-2"/>
    <path d="M350.000,37.000 L350.000,36.000 L361.000,36.000 L361.000,37.000 L350.000,37.000 Z" class="cls-2"/>
    <path d="M352.000,34.000 L352.000,33.000 L362.000,33.000 L362.000,34.000 L352.000,34.000 Z" class="cls-2"/>
    <path d="M353.000,31.000 L353.000,30.000 L363.000,30.000 L363.000,31.000 L353.000,31.000 Z" class="cls-2"/>
    <path d="M354.000,28.000 L354.000,27.000 L365.000,27.000 L365.000,28.000 L354.000,28.000 Z" class="cls-2"/>
    <path d="M355.000,25.000 L355.000,24.000 L366.000,24.000 L366.000,25.000 L355.000,25.000 Z" class="cls-2"/>
  </g>
</svg>
