<svg xmlns="http://www.w3.org/2000/svg" xmlns:xlink="http://www.w3.org/1999/xlink" preserveAspectRatio="xMidYMid" width="674" height="670" viewBox="0 0 674 670">
  <defs>
    <style>
      .cls-1 {
        fill: #000;
      }

      .cls-1, .cls-2 {
        stroke: #fff;
        stroke-width: 1px;
        fill-rule: evenodd;
      }

      .cls-2 {
        fill: none;
      }
    </style>
  </defs>
  <g>
    <path d="M602.736,513.218 L596.528,524.640 L564.135,477.442 L571.776,463.384 L629.001,464.895 L622.793,476.317 L581.765,472.228 L576.990,481.014 L602.736,513.218 Z" class="cls-1"/>
    <path d="M627.109,480.940 L623.766,487.090 L595.746,482.103 L593.358,486.496 L612.305,508.176 L608.485,515.205 L580.504,482.924 L585.279,474.138 L627.109,480.940 Z" class="cls-1"/>
    <path d="M618.706,464.990 L619.584,465.468 L614.331,475.132 L613.453,474.655 L618.706,464.990 Z" class="cls-2"/>
    <path d="M615.592,464.436 L616.471,464.914 L611.218,474.578 L610.339,474.101 L615.592,464.436 Z" class="cls-2"/>
    <path d="M612.001,464.761 L612.880,465.238 L608.105,474.024 L607.226,473.547 L612.001,464.761 Z" class="cls-2"/>
    <path d="M608.888,464.207 L609.767,464.684 L604.514,474.349 L603.635,473.871 L608.888,464.207 Z" class="cls-2"/>
    <path d="M605.775,463.653 L606.653,464.130 L601.400,473.795 L600.522,473.317 L605.775,463.653 Z" class="cls-2"/>
    <path d="M602.184,463.977 L603.062,464.455 L597.809,474.119 L596.931,473.642 L602.184,463.977 Z" class="cls-2"/>
    <path d="M598.593,464.302 L599.471,464.779 L594.696,473.565 L593.817,473.088 L598.593,464.302 Z" class="cls-2"/>
    <path d="M595.002,464.626 L595.881,465.104 L591.583,473.011 L590.704,472.534 L595.002,464.626 Z" class="cls-2"/>
    <path d="M591.889,464.072 L592.767,464.550 L588.469,472.457 L587.591,471.980 L591.889,464.072 Z" class="cls-2"/>
    <path d="M588.775,463.518 L589.654,463.996 L585.356,471.903 L584.477,471.426 L588.775,463.518 Z" class="cls-2"/>
    <path d="M585.184,463.843 L586.063,464.320 L572.692,488.921 L571.813,488.444 L585.184,463.843 Z" class="cls-2"/>
    <path d="M619.775,486.058 L620.653,486.536 L610.147,505.865 L609.268,505.388 L619.775,486.058 Z" class="cls-2"/>
    <path d="M577.792,483.726 L578.670,484.204 L574.372,492.111 L573.494,491.634 L577.792,483.726 Z" class="cls-2"/>
    <path d="M579.950,486.038 L580.829,486.515 L576.053,495.301 L575.174,494.824 L579.950,486.038 Z" class="cls-2"/>
    <path d="M582.108,488.349 L582.987,488.826 L578.211,497.612 L577.333,497.135 L582.108,488.349 Z" class="cls-2"/>
    <path d="M583.789,491.539 L584.667,492.016 L580.370,499.924 L579.491,499.446 L583.789,491.539 Z" class="cls-2"/>
    <path d="M585.947,493.850 L586.826,494.327 L582.050,503.113 L581.172,502.636 L585.947,493.850 Z" class="cls-2"/>
    <path d="M588.105,496.161 L588.984,496.639 L583.731,506.303 L582.852,505.826 L588.105,496.161 Z" class="cls-2"/>
    <path d="M589.786,499.351 L590.665,499.829 L585.889,508.615 L585.011,508.137 L589.786,499.351 Z" class="cls-2"/>
    <path d="M591.944,501.662 L592.823,502.140 L588.048,510.926 L587.169,510.448 L591.944,501.662 Z" class="cls-2"/>
    <path d="M594.103,503.973 L594.981,504.451 L589.728,514.116 L588.850,513.638 L594.103,503.973 Z" class="cls-2"/>
    <path d="M596.261,506.285 L597.140,506.762 L591.887,516.427 L591.008,515.949 L596.261,506.285 Z" class="cls-2"/>
  </g>
</svg>
