<svg xmlns="http://www.w3.org/2000/svg" xmlns:xlink="http://www.w3.org/1999/xlink" preserveAspectRatio="xMidYMid" width="674" height="670" viewBox="0 0 674 670">
  <defs>
    <style>
      .cls-1 {
        fill: #000;
      }

      .cls-1, .cls-2 {
        stroke: #fff;
        stroke-width: 1px;
        fill-rule: evenodd;
      }

      .cls-2 {
        fill: none;
      }
    </style>
  </defs>
  <g>
    <path d="M431.840,639.081 L419.647,643.589 L426.347,586.737 L441.354,581.189 L483.427,620.007 L471.234,624.515 L443.049,594.422 L433.669,597.890 L431.840,639.081 Z" class="cls-1"/>
    <path d="M471.439,630.836 L464.873,633.264 L447.068,611.061 L442.379,612.795 L442.363,641.587 L434.859,644.361 L435.057,601.642 L444.436,598.174 L471.439,630.836 Z" class="cls-1"/>
    <path d="M475.616,613.299 L475.963,614.237 L465.646,618.052 L465.299,617.114 L475.616,613.299 Z" class="cls-2"/>
    <path d="M473.638,610.832 L473.985,611.770 L463.668,615.585 L463.321,614.647 L473.638,610.832 Z" class="cls-2"/>
    <path d="M470.722,608.712 L471.069,609.650 L461.689,613.118 L461.342,612.180 L470.722,608.712 Z" class="cls-2"/>
    <path d="M468.743,606.245 L469.090,607.183 L458.773,610.998 L458.426,610.060 L468.743,606.245 Z" class="cls-2"/>
    <path d="M466.765,603.778 L467.112,604.716 L456.795,608.531 L456.448,607.593 L466.765,603.778 Z" class="cls-2"/>
    <path d="M463.849,601.658 L464.196,602.596 L453.878,606.410 L453.532,605.473 L463.849,601.658 Z" class="cls-2"/>
    <path d="M460.933,599.538 L461.279,600.476 L451.900,603.943 L451.553,603.006 L460.933,599.538 Z" class="cls-2"/>
    <path d="M458.016,597.417 L458.363,598.355 L449.922,601.476 L449.575,600.538 L458.016,597.417 Z" class="cls-2"/>
    <path d="M456.038,594.950 L456.385,595.888 L447.943,599.009 L447.597,598.071 L456.038,594.950 Z" class="cls-2"/>
    <path d="M454.060,592.483 L454.407,593.421 L445.965,596.542 L445.618,595.604 L454.060,592.483 Z" class="cls-2"/>
    <path d="M451.143,590.363 L451.490,591.301 L425.228,601.011 L424.881,600.073 L451.143,590.363 Z" class="cls-2"/>
    <path d="M462.548,629.859 L462.895,630.797 L442.260,638.426 L441.913,637.488 L462.548,629.859 Z" class="cls-2"/>
    <path d="M432.487,600.460 L432.834,601.397 L424.392,604.519 L424.046,603.581 L432.487,600.460 Z" class="cls-2"/>
    <path d="M432.590,603.620 L432.936,604.558 L423.557,608.026 L423.210,607.088 L432.590,603.620 Z" class="cls-2"/>
    <path d="M432.692,606.781 L433.039,607.719 L423.659,611.187 L423.313,610.249 L432.692,606.781 Z" class="cls-2"/>
    <path d="M431.856,610.288 L432.203,611.226 L423.762,614.347 L423.415,613.409 L431.856,610.288 Z" class="cls-2"/>
    <path d="M431.959,613.449 L432.306,614.387 L422.926,617.855 L422.579,616.917 L431.959,613.449 Z" class="cls-2"/>
    <path d="M432.061,616.609 L432.408,617.547 L422.091,621.362 L421.744,620.424 L432.061,616.609 Z" class="cls-2"/>
    <path d="M431.226,620.117 L431.573,621.055 L422.193,624.523 L421.846,623.585 L431.226,620.117 Z" class="cls-2"/>
    <path d="M431.328,623.277 L431.675,624.215 L422.296,627.683 L421.949,626.745 L431.328,623.277 Z" class="cls-2"/>
    <path d="M431.431,626.438 L431.777,627.376 L421.460,631.191 L421.113,630.253 L431.431,626.438 Z" class="cls-2"/>
    <path d="M431.533,629.599 L431.880,630.537 L421.563,634.351 L421.216,633.413 L431.533,629.599 Z" class="cls-2"/>
  </g>
</svg>
