<svg xmlns="http://www.w3.org/2000/svg" xmlns:xlink="http://www.w3.org/1999/xlink" preserveAspectRatio="xMidYMid" width="674" height="670" viewBox="0 0 674 670">
  <defs>
    <style>
      .cls-1 {
        fill: #000;
      }

      .cls-1, .cls-2 {
        stroke: #fff;
        stroke-width: 1px;
        fill-rule: evenodd;
      }

      .cls-2 {
        fill: none;
      }
    </style>
  </defs>
  <g>
    <path d="M558.101,104.282 L567.940,112.779 L514.929,134.383 L502.819,123.926 L516.476,68.333 L526.314,76.830 L513.587,116.048 L521.155,122.584 L558.101,104.282 Z" class="cls-1"/>
    <path d="M531.750,73.597 L537.048,78.172 L526.212,104.489 L529.996,107.757 L555.212,93.859 L561.266,99.087 L523.769,119.557 L516.201,113.020 L531.750,73.597 Z" class="cls-1"/>
    <path d="M514.377,78.413 L515.031,77.656 L523.356,84.846 L522.702,85.603 L514.377,78.413 Z" class="cls-2"/>
    <path d="M513.173,81.337 L513.827,80.580 L522.152,87.770 L521.498,88.527 L513.173,81.337 Z" class="cls-2"/>
    <path d="M512.726,84.915 L513.380,84.158 L520.948,90.694 L520.294,91.451 L512.726,84.915 Z" class="cls-2"/>
    <path d="M511.522,87.839 L512.176,87.082 L520.501,94.272 L519.847,95.029 L511.522,87.839 Z" class="cls-2"/>
    <path d="M510.318,90.763 L510.972,90.006 L519.297,97.196 L518.643,97.953 L510.318,90.763 Z" class="cls-2"/>
    <path d="M509.871,94.341 L510.525,93.584 L518.850,100.774 L518.196,101.530 L509.871,94.341 Z" class="cls-2"/>
    <path d="M509.424,97.918 L510.077,97.162 L517.646,103.698 L516.992,104.455 L509.424,97.918 Z" class="cls-2"/>
    <path d="M508.977,101.496 L509.630,100.739 L516.442,106.622 L515.788,107.379 L508.977,101.496 Z" class="cls-2"/>
    <path d="M507.773,104.420 L508.426,103.663 L515.238,109.546 L514.584,110.303 L507.773,104.420 Z" class="cls-2"/>
    <path d="M506.569,107.344 L507.222,106.588 L514.034,112.470 L513.380,113.227 L506.569,107.344 Z" class="cls-2"/>
    <path d="M506.122,110.922 L506.775,110.165 L527.966,128.466 L527.313,129.223 L506.122,110.922 Z" class="cls-2"/>
    <path d="M535.190,81.853 L535.844,81.096 L552.494,95.475 L551.840,96.232 L535.190,81.853 Z" class="cls-2"/>
    <path d="M523.976,122.377 L524.629,121.621 L531.441,127.503 L530.787,128.260 L523.976,122.377 Z" class="cls-2"/>
    <path d="M526.693,120.761 L527.347,120.004 L534.915,126.540 L534.262,127.297 L526.693,120.761 Z" class="cls-2"/>
    <path d="M529.411,119.144 L530.065,118.387 L537.633,124.923 L536.979,125.680 L529.411,119.144 Z" class="cls-2"/>
    <path d="M532.886,118.180 L533.539,117.424 L540.351,123.306 L539.697,124.063 L532.886,118.180 Z" class="cls-2"/>
    <path d="M535.603,116.563 L536.257,115.807 L543.825,122.343 L543.172,123.100 L535.603,116.563 Z" class="cls-2"/>
    <path d="M538.321,114.947 L538.975,114.190 L547.300,121.379 L546.646,122.136 L538.321,114.947 Z" class="cls-2"/>
    <path d="M541.795,113.983 L542.449,113.226 L550.017,119.763 L549.364,120.519 L541.795,113.983 Z" class="cls-2"/>
    <path d="M544.513,112.366 L545.167,111.610 L552.735,118.146 L552.081,118.903 L544.513,112.366 Z" class="cls-2"/>
    <path d="M547.231,110.750 L547.884,109.993 L556.210,117.182 L555.556,117.939 L547.231,110.750 Z" class="cls-2"/>
    <path d="M549.948,109.133 L550.602,108.376 L558.927,115.566 L558.274,116.322 L549.948,109.133 Z" class="cls-2"/>
  </g>
</svg>
