<svg xmlns="http://www.w3.org/2000/svg" xmlns:xlink="http://www.w3.org/1999/xlink" preserveAspectRatio="xMidYMid" width="674" height="670" viewBox="0 0 674 670">
  <defs>
    <style>
      .cls-1 {
        fill: #000;
      }

      .cls-1, .cls-2 {
        stroke: #fff;
        stroke-width: 1px;
        fill-rule: evenodd;
      }

      .cls-2 {
        fill: none;
      }
    </style>
  </defs>
  <g>
    <path d="M50.959,478.478 L44.600,467.139 L101.801,464.874 L109.626,478.830 L77.858,526.451 L71.500,515.112 L96.820,482.571 L91.929,473.849 L50.959,478.478 Z" class="cls-1"/>
    <path d="M65.288,516.302 L61.865,510.197 L81.014,489.141 L78.568,484.780 L50.127,489.263 L46.214,482.285 L88.440,475.805 L93.331,484.528 L65.288,516.302 Z" class="cls-1"/>
    <path d="M83.263,517.689 L82.391,518.178 L77.011,508.583 L77.883,508.094 L83.263,517.689 Z" class="cls-2"/>
    <path d="M85.390,515.349 L84.518,515.838 L79.138,506.243 L80.011,505.754 L85.390,515.349 Z" class="cls-2"/>
    <path d="M87.029,512.137 L86.157,512.626 L81.266,503.904 L82.138,503.415 L87.029,512.137 Z" class="cls-2"/>
    <path d="M89.157,509.798 L88.284,510.287 L82.904,500.692 L83.777,500.203 L89.157,509.798 Z" class="cls-2"/>
    <path d="M91.284,507.458 L90.412,507.947 L85.032,498.353 L85.904,497.864 L91.284,507.458 Z" class="cls-2"/>
    <path d="M92.923,504.247 L92.051,504.736 L86.671,495.141 L87.543,494.652 L92.923,504.247 Z" class="cls-2"/>
    <path d="M94.561,501.035 L93.689,501.524 L88.798,492.802 L89.671,492.313 L94.561,501.035 Z" class="cls-2"/>
    <path d="M96.200,497.823 L95.328,498.312 L90.926,490.462 L91.798,489.973 L96.200,497.823 Z" class="cls-2"/>
    <path d="M98.328,495.484 L97.455,495.973 L93.054,488.123 L93.926,487.634 L98.328,495.484 Z" class="cls-2"/>
    <path d="M100.455,493.144 L99.583,493.633 L95.181,485.783 L96.053,485.294 L100.455,493.144 Z" class="cls-2"/>
    <path d="M102.094,489.932 L101.221,490.422 L87.527,465.999 L88.399,465.510 L102.094,489.932 Z" class="cls-2"/>
    <path d="M64.865,507.368 L63.992,507.857 L53.233,488.668 L54.105,488.179 L64.865,507.368 Z" class="cls-2"/>
    <path d="M89.206,473.083 L88.334,473.572 L83.932,465.722 L84.804,465.233 L89.206,473.083 Z" class="cls-2"/>
    <path d="M86.100,473.678 L85.228,474.167 L80.337,465.444 L81.210,464.955 L86.100,473.678 Z" class="cls-2"/>
    <path d="M82.995,474.273 L82.122,474.762 L77.232,466.039 L78.104,465.550 L82.995,474.273 Z" class="cls-2"/>
    <path d="M79.400,473.996 L78.528,474.485 L74.126,466.634 L74.998,466.145 L79.400,473.996 Z" class="cls-2"/>
    <path d="M76.294,474.591 L75.422,475.080 L70.531,466.357 L71.403,465.868 L76.294,474.591 Z" class="cls-2"/>
    <path d="M73.188,475.186 L72.316,475.675 L66.936,466.080 L67.808,465.591 L73.188,475.186 Z" class="cls-2"/>
    <path d="M69.593,474.908 L68.721,475.397 L63.830,466.675 L64.702,466.186 L69.593,474.908 Z" class="cls-2"/>
    <path d="M66.488,475.503 L65.615,475.992 L60.724,467.270 L61.597,466.781 L66.488,475.503 Z" class="cls-2"/>
    <path d="M63.382,476.098 L62.509,476.587 L57.130,466.993 L58.002,466.504 L63.382,476.098 Z" class="cls-2"/>
    <path d="M60.276,476.693 L59.404,477.182 L54.024,467.588 L54.896,467.099 L60.276,476.693 Z" class="cls-2"/>
  </g>
</svg>
