<svg xmlns="http://www.w3.org/2000/svg" xmlns:xlink="http://www.w3.org/1999/xlink" preserveAspectRatio="xMidYMid" width="674" height="670" viewBox="0 0 674 670">
  <defs>
    <style>
      .cls-1 {
        fill: #000;
      }

      .cls-1, .cls-2 {
        stroke: #fff;
        stroke-width: 1px;
        fill-rule: evenodd;
      }

      .cls-2 {
        fill: none;
      }
    </style>
  </defs>
  <g>
    <path d="M149.260,76.191 L159.197,67.809 L172.202,123.558 L159.972,133.873 L107.216,111.650 L117.154,103.268 L153.884,122.001 L161.528,115.554 L149.260,76.191 Z" class="cls-1"/>
    <path d="M114.814,97.392 L120.165,92.879 L144.452,107.717 L148.275,104.493 L138.512,77.406 L144.627,72.249 L158.949,112.496 L151.305,118.944 L114.814,97.392 Z" class="cls-1"/>
    <path d="M116.841,115.306 L116.196,114.541 L124.605,107.450 L125.249,108.214 L116.841,115.306 Z" class="cls-2"/>
    <path d="M119.539,116.954 L118.895,116.190 L127.303,109.098 L127.948,109.863 L119.539,116.954 Z" class="cls-2"/>
    <path d="M123.002,117.958 L122.358,117.194 L130.002,110.747 L130.647,111.511 L123.002,117.958 Z" class="cls-2"/>
    <path d="M125.701,119.607 L125.056,118.842 L133.465,111.751 L134.110,112.515 L125.701,119.607 Z" class="cls-2"/>
    <path d="M128.399,121.255 L127.755,120.491 L136.163,113.399 L136.808,114.164 L128.399,121.255 Z" class="cls-2"/>
    <path d="M131.862,122.259 L131.218,121.495 L139.626,114.403 L140.271,115.168 L131.862,122.259 Z" class="cls-2"/>
    <path d="M135.325,123.263 L134.681,122.499 L142.325,116.052 L142.970,116.816 L135.325,123.263 Z" class="cls-2"/>
    <path d="M138.788,124.267 L138.144,123.503 L145.024,117.700 L145.668,118.465 L138.788,124.267 Z" class="cls-2"/>
    <path d="M141.487,125.916 L140.842,125.151 L147.722,119.349 L148.367,120.113 L141.487,125.916 Z" class="cls-2"/>
    <path d="M144.186,127.564 L143.541,126.800 L150.421,120.997 L151.065,121.762 L144.186,127.564 Z" class="cls-2"/>
    <path d="M147.648,128.568 L147.004,127.804 L168.408,109.752 L169.052,110.516 L147.648,128.568 Z" class="cls-2"/>
    <path d="M123.509,95.292 L122.864,94.528 L139.681,80.344 L140.326,81.109 L123.509,95.292 Z" class="cls-2"/>
    <path d="M161.767,112.736 L161.123,111.971 L168.002,106.169 L168.647,106.934 L161.767,112.736 Z" class="cls-2"/>
    <path d="M160.598,109.798 L159.953,109.033 L167.597,102.586 L168.242,103.351 L160.598,109.798 Z" class="cls-2"/>
    <path d="M159.428,106.860 L158.783,106.095 L166.428,99.648 L167.072,100.413 L159.428,106.860 Z" class="cls-2"/>
    <path d="M159.023,103.277 L158.378,102.513 L165.258,96.710 L165.903,97.475 L159.023,103.277 Z" class="cls-2"/>
    <path d="M157.853,100.339 L157.208,99.575 L164.853,93.128 L165.497,93.892 L157.853,100.339 Z" class="cls-2"/>
    <path d="M156.683,97.401 L156.039,96.637 L164.447,89.545 L165.092,90.309 L156.683,97.401 Z" class="cls-2"/>
    <path d="M156.278,93.819 L155.633,93.054 L163.278,86.607 L163.922,87.371 L156.278,93.819 Z" class="cls-2"/>
    <path d="M155.108,90.881 L154.464,90.116 L162.108,83.669 L162.753,84.433 L155.108,90.881 Z" class="cls-2"/>
    <path d="M153.939,87.943 L153.294,87.178 L161.703,80.086 L162.347,80.851 L153.939,87.943 Z" class="cls-2"/>
    <path d="M152.769,85.005 L152.124,84.240 L160.533,77.148 L161.178,77.913 L152.769,85.005 Z" class="cls-2"/>
  </g>
</svg>
