<svg xmlns="http://www.w3.org/2000/svg" xmlns:xlink="http://www.w3.org/1999/xlink" preserveAspectRatio="xMidYMid" width="373.66" height="317.344" viewBox="0 0 373.66 317.344">
  <defs>
    <style>
      .cls-1 {
        fill: #000;
        fill-rule: evenodd;
      }
    </style>
  </defs>
  <path d="M215.000,225.000 C200.887,227.970 180.253,226.998 163.000,227.000 C162.364,225.728 161.371,225.582 161.000,225.000 C161.000,224.333 161.000,223.667 161.000,223.000 C160.667,223.000 160.333,223.000 160.000,223.000 C160.000,222.333 160.000,221.667 160.000,221.000 C159.333,220.667 158.667,220.333 158.000,220.000 C158.000,219.000 158.000,218.000 158.000,217.000 C157.667,217.000 157.333,217.000 157.000,217.000 C157.000,216.333 157.000,215.667 157.000,215.000 C156.667,215.000 156.333,215.000 156.000,215.000 C156.000,213.000 156.000,211.000 156.000,209.000 C155.667,209.000 155.333,209.000 155.000,209.000 C155.000,208.000 155.000,207.000 155.000,206.000 C154.667,206.000 154.333,206.000 154.000,206.000 C154.000,205.000 154.000,204.000 154.000,203.000 C153.667,203.000 153.333,203.000 153.000,203.000 C153.000,202.333 153.000,201.667 153.000,201.000 C152.667,201.000 152.333,201.000 152.000,201.000 C151.333,199.000 150.667,197.000 150.000,195.000 C149.667,195.000 149.333,195.000 149.000,195.000 C148.667,193.000 148.333,191.000 148.000,189.000 C147.667,189.000 147.333,189.000 147.000,189.000 C146.333,186.000 145.667,183.000 145.000,180.000 C144.667,180.000 144.333,180.000 144.000,180.000 C144.000,179.333 144.000,178.667 144.000,178.000 C143.667,178.000 143.333,178.000 143.000,178.000 C143.000,177.000 143.000,176.000 143.000,175.000 C142.667,175.000 142.333,175.000 142.000,175.000 C142.000,174.000 142.000,173.000 142.000,172.000 C141.667,172.000 141.333,172.000 141.000,172.000 C140.667,170.667 140.333,169.333 140.000,168.000 C139.667,168.000 139.333,168.000 139.000,168.000 C139.000,167.333 139.000,166.667 139.000,166.000 C138.667,166.000 138.333,166.000 138.000,166.000 C138.000,165.000 138.000,164.000 138.000,163.000 C137.667,163.000 137.333,163.000 137.000,163.000 C137.000,162.333 137.000,161.667 137.000,161.000 C136.667,161.000 136.333,161.000 136.000,161.000 C136.000,159.333 136.000,157.667 136.000,156.000 C135.667,156.000 135.333,156.000 135.000,156.000 C135.000,154.667 135.000,153.333 135.000,152.000 C134.667,152.000 134.333,152.000 134.000,152.000 C133.667,150.667 133.333,149.333 133.000,148.000 C132.667,148.000 132.333,148.000 132.000,148.000 C132.000,147.333 132.000,146.667 132.000,146.000 C131.667,146.000 131.333,146.000 131.000,146.000 C131.000,144.667 131.000,143.333 131.000,142.000 C130.667,142.000 130.333,142.000 130.000,142.000 C129.333,140.000 128.667,138.000 128.000,136.000 C127.667,136.000 127.333,136.000 127.000,136.000 C127.000,135.333 127.000,134.667 127.000,134.000 C126.667,134.000 126.333,134.000 126.000,134.000 C125.667,132.000 125.333,130.000 125.000,128.000 C124.667,128.000 124.333,128.000 124.000,128.000 C124.000,127.000 124.000,126.000 124.000,125.000 C123.667,125.000 123.333,125.000 123.000,125.000 C123.000,124.000 123.000,123.000 123.000,122.000 C122.667,122.000 122.333,122.000 122.000,122.000 C122.000,121.000 122.000,120.000 122.000,119.000 C121.667,119.000 121.333,119.000 121.000,119.000 C121.000,118.000 121.000,117.000 121.000,116.000 C120.667,116.000 120.333,116.000 120.000,116.000 C120.000,115.333 120.000,114.667 120.000,114.000 C119.667,114.000 119.333,114.000 119.000,114.000 C119.000,113.000 119.000,112.000 119.000,111.000 C118.333,110.667 117.667,110.333 117.000,110.000 C117.000,109.333 117.000,108.667 117.000,108.000 C116.667,108.000 116.333,108.000 116.000,108.000 C114.667,102.334 113.333,96.666 112.000,91.000 C111.667,91.000 111.333,91.000 111.000,91.000 C110.667,89.334 110.333,87.666 110.000,86.000 C109.667,86.000 109.333,86.000 109.000,86.000 C109.000,85.333 109.000,84.667 109.000,84.000 C108.667,84.000 108.333,84.000 108.000,84.000 C108.000,83.000 108.000,82.000 108.000,81.000 C107.333,80.667 106.667,80.333 106.000,80.000 C106.000,79.333 106.000,78.667 106.000,78.000 C105.667,78.000 105.333,78.000 105.000,78.000 C104.000,73.667 103.000,69.333 102.000,65.000 C101.667,65.000 101.333,65.000 101.000,65.000 C100.667,63.000 100.333,61.000 100.000,59.000 C99.667,59.000 99.333,59.000 99.000,59.000 C99.000,58.333 99.000,57.667 99.000,57.000 C98.667,57.000 98.333,57.000 98.000,57.000 C97.667,55.333 97.333,53.666 97.000,52.000 C96.667,52.000 96.333,52.000 96.000,52.000 C95.667,50.667 95.333,49.333 95.000,48.000 C94.667,48.000 94.333,48.000 94.000,48.000 C94.000,47.000 94.000,46.000 94.000,45.000 C93.667,45.000 93.333,45.000 93.000,45.000 C93.000,44.000 93.000,43.000 93.000,42.000 C92.667,42.000 92.333,42.000 92.000,42.000 C92.000,41.000 92.000,40.000 92.000,39.000 C91.667,39.000 91.333,39.000 91.000,39.000 C91.000,38.000 91.000,37.000 91.000,36.000 C90.667,36.000 90.333,36.000 90.000,36.000 C90.000,34.667 90.000,33.333 90.000,32.000 C89.667,32.000 89.333,32.000 89.000,32.000 C89.000,31.333 89.000,30.667 89.000,30.000 C88.667,30.000 88.333,30.000 88.000,30.000 C88.000,29.000 88.000,28.000 88.000,27.000 C87.667,27.000 87.333,27.000 87.000,27.000 C87.000,26.333 87.000,25.667 87.000,25.000 C86.667,25.000 86.333,25.000 86.000,25.000 C85.667,23.667 85.333,22.333 85.000,21.000 C84.667,21.000 84.333,21.000 84.000,21.000 C82.308,17.121 82.128,11.173 82.000,6.000 C82.667,5.667 83.333,5.333 84.000,5.000 C87.774,1.188 99.959,3.300 107.000,3.000 C109.333,2.667 111.667,2.333 114.000,2.000 C114.000,2.333 114.000,2.667 114.000,3.000 C115.667,3.333 117.333,3.667 119.000,4.000 C119.658,5.238 120.603,5.397 121.000,6.000 C121.000,6.667 121.000,7.333 121.000,8.000 C121.667,8.333 122.333,8.667 123.000,9.000 C123.000,10.000 123.000,11.000 123.000,12.000 C123.427,13.007 126.288,18.641 127.000,19.000 C165.996,19.000 205.004,19.000 244.000,19.000 C245.139,17.861 244.004,18.602 246.000,18.000 C246.333,17.000 246.667,16.000 247.000,15.000 C247.667,14.667 248.333,14.333 249.000,14.000 C249.000,12.667 249.000,11.333 249.000,10.000 C249.333,10.000 249.667,10.000 250.000,10.000 C250.000,9.333 250.000,8.667 250.000,8.000 C250.333,8.000 250.667,8.000 251.000,8.000 C251.000,7.000 251.000,6.000 251.000,5.000 C251.333,5.000 251.667,5.000 252.000,5.000 C253.408,1.777 251.142,3.234 254.000,1.000 C254.000,0.667 254.000,0.333 254.000,-0.000 C259.000,-0.000 264.001,-0.000 269.000,-0.000 C270.691,1.502 274.815,0.992 278.000,1.000 C283.666,1.333 289.334,1.667 295.000,2.000 C295.581,3.162 296.753,3.577 297.000,4.000 C297.000,5.000 297.000,6.000 297.000,7.000 C297.333,7.000 297.667,7.000 298.000,7.000 C296.728,14.780 291.827,22.550 289.000,29.000 C288.333,32.000 287.667,35.000 287.000,38.000 C286.667,38.000 286.333,38.000 286.000,38.000 C286.000,38.667 286.000,39.333 286.000,40.000 C285.667,40.000 285.333,40.000 285.000,40.000 C285.000,41.333 285.000,42.667 285.000,44.000 C284.667,44.000 284.333,44.000 284.000,44.000 C283.667,45.333 283.333,46.667 283.000,48.000 C282.667,48.000 282.333,48.000 282.000,48.000 C282.000,49.333 282.000,50.667 282.000,52.000 C281.667,52.000 281.333,52.000 281.000,52.000 C280.667,53.333 280.333,54.667 280.000,56.000 C279.667,56.000 279.333,56.000 279.000,56.000 C279.000,57.000 279.000,58.000 279.000,59.000 C278.667,59.000 278.333,59.000 278.000,59.000 C278.000,59.667 278.000,60.333 278.000,61.000 C277.667,61.000 277.333,61.000 277.000,61.000 C276.333,64.000 275.667,67.000 275.000,70.000 C274.667,70.000 274.333,70.000 274.000,70.000 C274.000,70.667 274.000,71.333 274.000,72.000 C273.667,72.000 273.333,72.000 273.000,72.000 C272.667,74.000 272.333,76.000 272.000,78.000 C271.667,78.000 271.333,78.000 271.000,78.000 C271.000,78.667 271.000,79.333 271.000,80.000 C270.667,80.000 270.333,80.000 270.000,80.000 C270.000,81.333 270.000,82.667 270.000,84.000 C269.667,84.000 269.333,84.000 269.000,84.000 C268.667,85.333 268.333,86.667 268.000,88.000 C267.667,88.000 267.333,88.000 267.000,88.000 C266.667,90.000 266.333,92.000 266.000,94.000 C265.667,94.000 265.333,94.000 265.000,94.000 C264.667,95.333 264.333,96.667 264.000,98.000 C263.667,98.000 263.333,98.000 263.000,98.000 C262.667,100.000 262.333,102.000 262.000,104.000 C261.667,104.000 261.333,104.000 261.000,104.000 C261.000,104.667 261.000,105.333 261.000,106.000 C260.667,106.000 260.333,106.000 260.000,106.000 C260.000,107.333 260.000,108.667 260.000,110.000 C259.667,110.000 259.333,110.000 259.000,110.000 C258.667,111.333 258.333,112.667 258.000,114.000 C257.667,114.000 257.333,114.000 257.000,114.000 C257.000,115.000 257.000,116.000 257.000,117.000 C256.667,117.000 256.333,117.000 256.000,117.000 C256.000,117.667 256.000,118.333 256.000,119.000 C255.667,119.000 255.333,119.000 255.000,119.000 C254.667,121.000 254.333,123.000 254.000,125.000 C253.667,125.000 253.333,125.000 253.000,125.000 C252.667,126.333 252.333,127.667 252.000,129.000 C251.667,129.000 251.333,129.000 251.000,129.000 C250.667,131.000 250.333,133.000 250.000,135.000 C249.667,135.000 249.333,135.000 249.000,135.000 C248.667,137.000 248.333,139.000 248.000,141.000 C247.667,141.000 247.333,141.000 247.000,141.000 C247.000,141.667 247.000,142.333 247.000,143.000 C246.667,143.000 246.333,143.000 246.000,143.000 C246.000,144.000 246.000,145.000 246.000,146.000 C245.667,146.000 245.333,146.000 245.000,146.000 C245.000,147.000 245.000,148.000 245.000,149.000 C244.667,149.000 244.333,149.000 244.000,149.000 C243.333,151.000 242.667,153.000 242.000,155.000 C241.667,155.000 241.333,155.000 241.000,155.000 C241.000,156.333 241.000,157.667 241.000,159.000 C240.667,159.000 240.333,159.000 240.000,159.000 C240.000,159.667 240.000,160.333 240.000,161.000 C239.667,161.000 239.333,161.000 239.000,161.000 C238.667,163.000 238.333,165.000 238.000,167.000 C237.667,167.000 237.333,167.000 237.000,167.000 C237.000,167.667 237.000,168.333 237.000,169.000 C236.667,169.000 236.333,169.000 236.000,169.000 C236.000,170.000 236.000,171.000 236.000,172.000 C235.667,172.000 235.333,172.000 235.000,172.000 C235.000,173.000 235.000,174.000 235.000,175.000 C234.667,175.000 234.333,175.000 234.000,175.000 C234.000,175.667 234.000,176.333 234.000,177.000 C233.667,177.000 233.333,177.000 233.000,177.000 C232.667,179.000 232.333,181.000 232.000,183.000 C231.667,183.000 231.333,183.000 231.000,183.000 C230.667,184.333 230.333,185.667 230.000,187.000 C229.667,187.000 229.333,187.000 229.000,187.000 C229.000,188.000 229.000,189.000 229.000,190.000 C228.667,190.000 228.333,190.000 228.000,190.000 C228.000,190.667 228.000,191.333 228.000,192.000 C227.667,192.000 227.333,192.000 227.000,192.000 C226.333,195.000 225.667,198.000 225.000,201.000 C224.667,201.000 224.333,201.000 224.000,201.000 C224.000,201.667 224.000,202.333 224.000,203.000 C223.667,203.000 223.333,203.000 223.000,203.000 C223.000,204.333 223.000,205.667 223.000,207.000 C222.667,207.000 222.333,207.000 222.000,207.000 C222.000,207.667 222.000,208.333 222.000,209.000 C221.667,209.000 221.333,209.000 221.000,209.000 C220.667,211.000 220.333,213.000 220.000,215.000 C219.333,215.333 218.667,215.667 218.000,216.000 C218.000,217.000 218.000,218.000 218.000,219.000 C217.667,219.000 217.333,219.000 217.000,219.000 C217.000,220.000 217.000,221.000 217.000,222.000 C216.667,222.000 216.333,222.000 216.000,222.000 C215.667,223.000 215.333,224.000 215.000,225.000 ZM167.000,217.000 C180.915,217.084 197.773,218.231 210.000,216.000 C210.615,214.763 211.677,214.525 212.000,214.000 C212.000,213.333 212.000,212.667 212.000,212.000 C212.333,212.000 212.667,212.000 213.000,212.000 C213.333,210.000 213.667,208.000 214.000,206.000 C214.333,206.000 214.667,206.000 215.000,206.000 C215.000,205.333 215.000,204.667 215.000,204.000 C215.333,204.000 215.667,204.000 216.000,204.000 C216.333,202.000 216.667,200.000 217.000,198.000 C217.333,198.000 217.667,198.000 218.000,198.000 C218.000,197.333 218.000,196.667 218.000,196.000 C218.333,196.000 218.667,196.000 219.000,196.000 C219.000,195.000 219.000,194.000 219.000,193.000 C219.333,193.000 219.667,193.000 220.000,193.000 C220.000,192.000 220.000,191.000 220.000,190.000 C220.333,190.000 220.667,190.000 221.000,190.000 C221.000,189.000 221.000,188.000 221.000,187.000 C221.333,187.000 221.667,187.000 222.000,187.000 C222.000,186.000 222.000,185.000 222.000,184.000 C222.333,184.000 222.667,184.000 223.000,184.000 C223.333,182.667 223.667,181.333 224.000,180.000 C224.333,180.000 224.667,180.000 225.000,180.000 C225.000,179.333 225.000,178.667 225.000,178.000 C225.333,178.000 225.667,178.000 226.000,178.000 C226.000,177.000 226.000,176.000 226.000,175.000 C226.333,175.000 226.667,175.000 227.000,175.000 C227.000,174.333 227.000,173.667 227.000,173.000 C227.333,173.000 227.667,173.000 228.000,173.000 C228.000,172.000 228.000,171.000 228.000,170.000 C228.333,170.000 228.667,170.000 229.000,170.000 C229.000,168.667 229.000,167.333 229.000,166.000 C229.333,166.000 229.667,166.000 230.000,166.000 C230.000,165.333 230.000,164.667 230.000,164.000 C230.333,164.000 230.667,164.000 231.000,164.000 C231.333,162.000 231.667,160.000 232.000,158.000 C232.333,158.000 232.667,158.000 233.000,158.000 C233.000,157.333 233.000,156.667 233.000,156.000 C233.333,156.000 233.667,156.000 234.000,156.000 C234.333,154.000 234.667,152.000 235.000,150.000 C235.667,149.667 236.333,149.333 237.000,149.000 C237.000,148.333 237.000,147.667 237.000,147.000 C237.333,147.000 237.667,147.000 238.000,147.000 C238.000,145.667 238.000,144.333 238.000,143.000 C238.333,143.000 238.667,143.000 239.000,143.000 C239.000,142.333 239.000,141.667 239.000,141.000 C239.333,141.000 239.667,141.000 240.000,141.000 C240.333,139.000 240.667,137.000 241.000,135.000 C241.333,135.000 241.667,135.000 242.000,135.000 C242.000,134.333 242.000,133.667 242.000,133.000 C242.333,133.000 242.667,133.000 243.000,133.000 C243.333,130.667 243.667,128.333 244.000,126.000 C244.333,126.000 244.667,126.000 245.000,126.000 C245.000,125.333 245.000,124.667 245.000,124.000 C245.333,124.000 245.667,124.000 246.000,124.000 C246.000,123.000 246.000,122.000 246.000,121.000 C246.333,121.000 246.667,121.000 247.000,121.000 C247.000,120.000 247.000,119.000 247.000,118.000 C247.333,118.000 247.667,118.000 248.000,118.000 C248.000,117.333 248.000,116.667 248.000,116.000 C248.667,115.667 249.333,115.333 250.000,115.000 C250.333,113.000 250.667,111.000 251.000,109.000 C251.333,109.000 251.667,109.000 252.000,109.000 C252.000,108.333 252.000,107.667 252.000,107.000 C252.333,107.000 252.667,107.000 253.000,107.000 C253.000,106.000 253.000,105.000 253.000,104.000 C253.333,104.000 253.667,104.000 254.000,104.000 C254.000,103.000 254.000,102.000 254.000,101.000 C254.333,101.000 254.667,101.000 255.000,101.000 C255.000,100.000 255.000,99.000 255.000,98.000 C255.333,98.000 255.667,98.000 256.000,98.000 C256.000,97.000 256.000,96.000 256.000,95.000 C256.333,95.000 256.667,95.000 257.000,95.000 C257.000,94.000 257.000,93.000 257.000,92.000 C257.333,92.000 257.667,92.000 258.000,92.000 C258.333,90.667 258.667,89.333 259.000,88.000 C259.333,88.000 259.667,88.000 260.000,88.000 C260.333,86.333 260.667,84.666 261.000,83.000 C261.333,83.000 261.667,83.000 262.000,83.000 C262.333,81.000 262.667,79.000 263.000,77.000 C263.333,77.000 263.667,77.000 264.000,77.000 C264.333,75.667 264.667,74.333 265.000,73.000 C265.333,73.000 265.667,73.000 266.000,73.000 C266.000,71.667 266.000,70.333 266.000,69.000 C266.333,69.000 266.667,69.000 267.000,69.000 C267.333,67.667 267.667,66.333 268.000,65.000 C268.333,65.000 268.667,65.000 269.000,65.000 C269.000,63.000 269.000,61.000 269.000,59.000 C269.333,59.000 269.667,59.000 270.000,59.000 C270.000,58.333 270.000,57.667 270.000,57.000 C270.667,56.667 271.333,56.333 272.000,56.000 C272.000,55.000 272.000,54.000 272.000,53.000 C272.333,53.000 272.667,53.000 273.000,53.000 C273.333,51.667 273.667,50.333 274.000,49.000 C274.333,49.000 274.667,49.000 275.000,49.000 C275.333,47.000 275.667,45.000 276.000,43.000 C276.333,43.000 276.667,43.000 277.000,43.000 C277.000,42.333 277.000,41.667 277.000,41.000 C277.333,41.000 277.667,41.000 278.000,41.000 C278.000,39.667 278.000,38.333 278.000,37.000 C278.333,37.000 278.667,37.000 279.000,37.000 C279.333,35.667 279.667,34.333 280.000,33.000 C280.333,33.000 280.667,33.000 281.000,33.000 C281.000,31.667 281.000,30.333 281.000,29.000 C281.333,29.000 281.667,29.000 282.000,29.000 C282.333,27.667 282.667,26.333 283.000,25.000 C283.333,25.000 283.667,25.000 284.000,25.000 C284.333,23.000 284.667,21.000 285.000,19.000 C285.333,19.000 285.667,19.000 286.000,19.000 C286.333,17.667 286.667,16.333 287.000,15.000 C287.333,15.000 287.667,15.000 288.000,15.000 C288.637,12.974 286.668,8.386 286.000,8.000 C284.667,8.000 283.333,8.000 282.000,8.000 C281.037,8.778 263.956,8.096 259.000,8.000 C258.393,9.229 257.307,9.494 257.000,10.000 C257.000,10.667 257.000,11.333 257.000,12.000 C256.667,12.000 256.333,12.000 256.000,12.000 C255.333,15.666 254.667,19.334 254.000,23.000 C253.667,23.000 253.333,23.000 253.000,23.000 C253.000,23.667 253.000,24.333 253.000,25.000 C252.667,25.000 252.333,25.000 252.000,25.000 C252.000,25.667 252.000,26.333 252.000,27.000 C251.333,27.333 250.667,27.667 250.000,28.000 C250.000,29.333 250.000,30.667 250.000,32.000 C249.667,32.000 249.333,32.000 249.000,32.000 C248.667,33.333 248.333,34.667 248.000,36.000 C247.667,36.000 247.333,36.000 247.000,36.000 C247.000,37.666 247.000,39.333 247.000,41.000 C246.667,41.000 246.333,41.000 246.000,41.000 C246.000,41.667 246.000,42.333 246.000,43.000 C245.667,43.000 245.333,43.000 245.000,43.000 C245.000,44.000 245.000,45.000 245.000,46.000 C244.667,46.000 244.333,46.000 244.000,46.000 C244.000,47.333 244.000,48.667 244.000,50.000 C243.667,50.000 243.333,50.000 243.000,50.000 C243.000,51.000 243.000,52.000 243.000,53.000 C242.667,53.000 242.333,53.000 242.000,53.000 C242.000,54.333 242.000,55.667 242.000,57.000 C241.667,57.000 241.333,57.000 241.000,57.000 C240.667,58.333 240.333,59.667 240.000,61.000 C239.667,61.000 239.333,61.000 239.000,61.000 C239.000,62.333 239.000,63.667 239.000,65.000 C238.667,65.000 238.333,65.000 238.000,65.000 C238.000,65.667 238.000,66.333 238.000,67.000 C237.667,67.000 237.333,67.000 237.000,67.000 C236.667,69.000 236.333,71.000 236.000,73.000 C235.667,73.000 235.333,73.000 235.000,73.000 C235.000,73.667 235.000,74.333 235.000,75.000 C234.667,75.000 234.333,75.000 234.000,75.000 C234.000,76.333 234.000,77.667 234.000,79.000 C233.667,79.000 233.333,79.000 233.000,79.000 C233.000,80.000 233.000,81.000 233.000,82.000 C232.667,82.000 232.333,82.000 232.000,82.000 C232.000,82.667 232.000,83.333 232.000,84.000 C231.667,84.000 231.333,84.000 231.000,84.000 C230.333,87.333 229.667,90.667 229.000,94.000 C228.667,94.000 228.333,94.000 228.000,94.000 C228.000,94.667 228.000,95.333 228.000,96.000 C227.667,96.000 227.333,96.000 227.000,96.000 C227.000,97.000 227.000,98.000 227.000,99.000 C226.667,99.000 226.333,99.000 226.000,99.000 C226.000,100.333 226.000,101.667 226.000,103.000 C225.667,103.000 225.333,103.000 225.000,103.000 C225.000,104.000 225.000,105.000 225.000,106.000 C224.667,106.000 224.333,106.000 224.000,106.000 C224.000,107.000 224.000,108.000 224.000,109.000 C223.667,109.000 223.333,109.000 223.000,109.000 C223.000,110.000 223.000,111.000 223.000,112.000 C222.667,112.000 222.333,112.000 222.000,112.000 C222.000,113.000 222.000,114.000 222.000,115.000 C221.667,115.000 221.333,115.000 221.000,115.000 C221.000,116.333 221.000,117.667 221.000,119.000 C220.667,119.000 220.333,119.000 220.000,119.000 C219.667,120.333 219.333,121.667 219.000,123.000 C218.667,123.000 218.333,123.000 218.000,123.000 C217.667,125.333 217.333,127.667 217.000,130.000 C216.667,130.000 216.333,130.000 216.000,130.000 C216.000,130.667 216.000,131.333 216.000,132.000 C215.667,132.000 215.333,132.000 215.000,132.000 C215.000,133.000 215.000,134.000 215.000,135.000 C214.667,135.000 214.333,135.000 214.000,135.000 C214.000,135.667 214.000,136.333 214.000,137.000 C213.667,137.000 213.333,137.000 213.000,137.000 C213.000,138.333 213.000,139.667 213.000,141.000 C212.667,141.000 212.333,141.000 212.000,141.000 C212.000,142.333 212.000,143.667 212.000,145.000 C211.667,145.000 211.333,145.000 211.000,145.000 C211.000,145.667 211.000,146.333 211.000,147.000 C210.667,147.000 210.333,147.000 210.000,147.000 C210.000,148.000 210.000,149.000 210.000,150.000 C209.498,151.223 206.933,156.382 206.000,157.000 C203.485,158.666 197.984,157.998 194.000,158.000 C184.129,158.005 172.280,158.594 164.000,157.000 C162.000,152.667 160.000,148.333 158.000,144.000 C157.667,141.000 157.333,138.000 157.000,135.000 C156.667,135.000 156.333,135.000 156.000,135.000 C156.000,134.333 156.000,133.667 156.000,133.000 C155.667,133.000 155.333,133.000 155.000,133.000 C155.000,132.000 155.000,131.000 155.000,130.000 C154.667,130.000 154.333,130.000 154.000,130.000 C154.000,129.333 154.000,128.667 154.000,128.000 C153.667,128.000 153.333,128.000 153.000,128.000 C153.000,127.000 153.000,126.000 153.000,125.000 C152.667,125.000 152.333,125.000 152.000,125.000 C152.000,124.000 152.000,123.000 152.000,122.000 C151.667,122.000 151.333,122.000 151.000,122.000 C151.000,121.000 151.000,120.000 151.000,119.000 C150.667,119.000 150.333,119.000 150.000,119.000 C150.000,118.000 150.000,117.000 150.000,116.000 C149.667,116.000 149.333,116.000 149.000,116.000 C148.333,112.334 147.667,108.666 147.000,105.000 C146.667,105.000 146.333,105.000 146.000,105.000 C146.000,104.333 146.000,103.667 146.000,103.000 C145.667,103.000 145.333,103.000 145.000,103.000 C144.667,101.667 144.333,100.333 144.000,99.000 C143.667,99.000 143.333,99.000 143.000,99.000 C141.667,93.001 140.333,86.999 139.000,81.000 C138.667,81.000 138.333,81.000 138.000,81.000 C138.000,80.333 138.000,79.667 138.000,79.000 C137.667,79.000 137.333,79.000 137.000,79.000 C137.000,78.000 137.000,77.000 137.000,76.000 C136.333,75.667 135.667,75.333 135.000,75.000 C135.000,74.000 135.000,73.000 135.000,72.000 C134.667,72.000 134.333,72.000 134.000,72.000 C134.000,70.000 134.000,68.000 134.000,66.000 C133.667,66.000 133.333,66.000 133.000,66.000 C133.000,65.000 133.000,64.000 133.000,63.000 C132.667,63.000 132.333,63.000 132.000,63.000 C132.000,62.000 132.000,61.000 132.000,60.000 C131.667,60.000 131.333,60.000 131.000,60.000 C131.000,59.000 131.000,58.000 131.000,57.000 C130.667,57.000 130.333,57.000 130.000,57.000 C130.000,56.000 130.000,55.000 130.000,54.000 C129.667,54.000 129.333,54.000 129.000,54.000 C128.667,52.667 128.333,51.333 128.000,50.000 C127.667,50.000 127.333,50.000 127.000,50.000 C127.000,49.000 127.000,48.000 127.000,47.000 C126.667,47.000 126.333,47.000 126.000,47.000 C125.667,44.000 125.333,41.000 125.000,38.000 C124.667,38.000 124.333,38.000 124.000,38.000 C124.000,37.333 124.000,36.667 124.000,36.000 C123.667,36.000 123.333,36.000 123.000,36.000 C123.000,34.667 123.000,33.333 123.000,32.000 C122.667,32.000 122.333,32.000 122.000,32.000 C122.000,31.333 122.000,30.667 122.000,30.000 C121.667,30.000 121.333,30.000 121.000,30.000 C121.000,29.000 121.000,28.000 121.000,27.000 C120.667,27.000 120.333,27.000 120.000,27.000 C119.333,25.000 118.667,23.000 118.000,21.000 C117.667,21.000 117.333,21.000 117.000,21.000 C117.000,19.333 117.000,17.666 117.000,16.000 C116.990,15.969 116.401,16.043 116.000,14.000 C114.925,13.415 114.402,12.240 114.000,12.000 C113.333,12.000 112.667,12.000 112.000,12.000 C112.000,11.667 112.000,11.333 112.000,11.000 C109.334,11.000 106.666,11.000 104.000,11.000 C104.000,11.333 104.000,11.667 104.000,12.000 C101.000,11.667 98.000,11.333 95.000,11.000 C93.416,13.731 92.258,13.446 92.000,18.000 C92.333,18.000 92.667,18.000 93.000,18.000 C93.000,19.333 93.000,20.667 93.000,22.000 C93.333,22.000 93.667,22.000 94.000,22.000 C94.000,22.667 94.000,23.333 94.000,24.000 C94.333,24.000 94.667,24.000 95.000,24.000 C95.333,25.666 95.667,27.333 96.000,29.000 C96.333,29.000 96.667,29.000 97.000,29.000 C97.667,31.000 98.333,33.000 99.000,35.000 C99.333,35.000 99.667,35.000 100.000,35.000 C100.000,36.000 100.000,37.000 100.000,38.000 C100.333,38.000 100.667,38.000 101.000,38.000 C101.000,38.667 101.000,39.333 101.000,40.000 C101.333,40.000 101.667,40.000 102.000,40.000 C102.000,41.333 102.000,42.667 102.000,44.000 C102.333,44.000 102.667,44.000 103.000,44.000 C103.000,45.000 103.000,46.000 103.000,47.000 C103.333,47.000 103.667,47.000 104.000,47.000 C104.000,48.000 104.000,49.000 104.000,50.000 C104.333,50.000 104.667,50.000 105.000,50.000 C105.000,51.000 105.000,52.000 105.000,53.000 C105.333,53.000 105.667,53.000 106.000,53.000 C106.000,53.667 106.000,54.333 106.000,55.000 C106.333,55.000 106.667,55.000 107.000,55.000 C107.333,57.000 107.667,59.000 108.000,61.000 C108.333,61.000 108.667,61.000 109.000,61.000 C109.000,61.667 109.000,62.333 109.000,63.000 C109.333,63.000 109.667,63.000 110.000,63.000 C110.333,64.333 110.667,65.667 111.000,67.000 C111.333,67.000 111.667,67.000 112.000,67.000 C112.333,69.333 112.667,71.667 113.000,74.000 C113.333,74.000 113.667,74.000 114.000,74.000 C114.000,75.000 114.000,76.000 114.000,77.000 C114.333,77.000 114.667,77.000 115.000,77.000 C115.000,78.000 115.000,79.000 115.000,80.000 C115.333,80.000 115.667,80.000 116.000,80.000 C116.000,81.000 116.000,82.000 116.000,83.000 C116.333,83.000 116.667,83.000 117.000,83.000 C117.333,84.333 117.667,85.667 118.000,87.000 C118.333,87.000 118.667,87.000 119.000,87.000 C119.000,88.000 119.000,89.000 119.000,90.000 C119.333,90.000 119.667,90.000 120.000,90.000 C120.333,91.333 120.667,92.667 121.000,94.000 C121.333,94.000 121.667,94.000 122.000,94.000 C122.000,95.000 122.000,96.000 122.000,97.000 C122.333,97.000 122.667,97.000 123.000,97.000 C123.000,98.333 123.000,99.667 123.000,101.000 C123.333,101.000 123.667,101.000 124.000,101.000 C124.000,101.667 124.000,102.333 124.000,103.000 C124.333,103.000 124.667,103.000 125.000,103.000 C125.333,104.667 125.667,106.333 126.000,108.000 C126.333,108.000 126.667,108.000 127.000,108.000 C127.667,111.333 128.333,114.667 129.000,118.000 C129.333,118.000 129.667,118.000 130.000,118.000 C130.000,118.667 130.000,119.333 130.000,120.000 C130.333,120.000 130.667,120.000 131.000,120.000 C131.667,122.000 132.333,124.000 133.000,126.000 C133.333,126.000 133.667,126.000 134.000,126.000 C135.000,130.666 136.000,135.334 137.000,140.000 C137.333,140.000 137.667,140.000 138.000,140.000 C138.333,141.333 138.667,142.667 139.000,144.000 C139.333,144.000 139.667,144.000 140.000,144.000 C140.000,144.667 140.000,145.333 140.000,146.000 C140.333,146.000 140.667,146.000 141.000,146.000 C141.000,147.000 141.000,148.000 141.000,149.000 C141.333,149.000 141.667,149.000 142.000,149.000 C142.000,149.667 142.000,150.333 142.000,151.000 C142.333,151.000 142.667,151.000 143.000,151.000 C143.000,152.000 143.000,153.000 143.000,154.000 C143.333,154.000 143.667,154.000 144.000,154.000 C144.000,154.667 144.000,155.333 144.000,156.000 C144.333,156.000 144.667,156.000 145.000,156.000 C145.333,158.333 145.667,160.667 146.000,163.000 C146.333,163.000 146.667,163.000 147.000,163.000 C147.000,164.000 147.000,165.000 147.000,166.000 C147.333,166.000 147.667,166.000 148.000,166.000 C148.000,167.000 148.000,168.000 148.000,169.000 C148.333,169.000 148.667,169.000 149.000,169.000 C149.000,170.000 149.000,171.000 149.000,172.000 C149.333,172.000 149.667,172.000 150.000,172.000 C150.333,173.333 150.667,174.667 151.000,176.000 C151.333,176.000 151.667,176.000 152.000,176.000 C152.000,176.667 152.000,177.333 152.000,178.000 C152.333,178.000 152.667,178.000 153.000,178.000 C153.000,179.000 153.000,180.000 153.000,181.000 C153.333,181.000 153.667,181.000 154.000,181.000 C154.333,182.333 154.667,183.667 155.000,185.000 C155.333,185.000 155.667,185.000 156.000,185.000 C156.333,187.333 156.667,189.667 157.000,192.000 C157.333,192.000 157.667,192.000 158.000,192.000 C158.000,192.667 158.000,193.333 158.000,194.000 C158.333,194.000 158.667,194.000 159.000,194.000 C159.000,195.333 159.000,196.667 159.000,198.000 C159.333,198.000 159.667,198.000 160.000,198.000 C160.000,199.000 160.000,200.000 160.000,201.000 C160.333,201.000 160.667,201.000 161.000,201.000 C161.000,202.000 161.000,203.000 161.000,204.000 C161.333,204.000 161.667,204.000 162.000,204.000 C162.333,205.333 162.667,206.667 163.000,208.000 C163.333,208.000 163.667,208.000 164.000,208.000 C164.000,209.000 164.000,210.000 164.000,211.000 C164.333,211.000 164.667,211.000 165.000,211.000 C165.667,213.000 166.333,215.000 167.000,217.000 ZM132.000,28.000 C131.055,29.801 130.615,29.574 130.000,32.000 C130.333,32.000 130.667,32.000 131.000,32.000 C131.000,33.000 131.000,34.000 131.000,35.000 C131.333,35.000 131.667,35.000 132.000,35.000 C132.333,36.333 132.667,37.667 133.000,39.000 C133.333,39.000 133.667,39.000 134.000,39.000 C134.000,40.000 134.000,41.000 134.000,42.000 C134.333,42.000 134.667,42.000 135.000,42.000 C135.000,43.000 135.000,44.000 135.000,45.000 C135.333,45.000 135.667,45.000 136.000,45.000 C136.000,46.333 136.000,47.667 136.000,49.000 C136.333,49.000 136.667,49.000 137.000,49.000 C137.333,51.333 137.667,53.667 138.000,56.000 C138.333,56.000 138.667,56.000 139.000,56.000 C139.000,57.000 139.000,58.000 139.000,59.000 C139.333,59.000 139.667,59.000 140.000,59.000 C140.000,59.667 140.000,60.333 140.000,61.000 C140.333,61.000 140.667,61.000 141.000,61.000 C141.000,62.000 141.000,63.000 141.000,64.000 C141.333,64.000 141.667,64.000 142.000,64.000 C142.000,65.000 142.000,66.000 142.000,67.000 C142.333,67.000 142.667,67.000 143.000,67.000 C143.000,68.000 143.000,69.000 143.000,70.000 C143.333,70.000 143.667,70.000 144.000,70.000 C144.333,72.666 144.667,75.334 145.000,78.000 C145.333,78.000 145.667,78.000 146.000,78.000 C146.000,78.667 146.000,79.333 146.000,80.000 C146.333,80.000 146.667,80.000 147.000,80.000 C147.333,82.000 147.667,84.000 148.000,86.000 C148.333,86.000 148.667,86.000 149.000,86.000 C149.333,87.333 149.667,88.667 150.000,90.000 C150.333,90.000 150.667,90.000 151.000,90.000 C151.000,91.000 151.000,92.000 151.000,93.000 C151.333,93.000 151.667,93.000 152.000,93.000 C152.000,94.333 152.000,95.667 152.000,97.000 C152.333,97.000 152.667,97.000 153.000,97.000 C153.000,98.333 153.000,99.667 153.000,101.000 C153.333,101.000 153.667,101.000 154.000,101.000 C154.000,102.000 154.000,103.000 154.000,104.000 C154.333,104.000 154.667,104.000 155.000,104.000 C155.000,105.000 155.000,106.000 155.000,107.000 C155.333,107.000 155.667,107.000 156.000,107.000 C156.000,108.000 156.000,109.000 156.000,110.000 C156.333,110.000 156.667,110.000 157.000,110.000 C157.000,111.000 157.000,112.000 157.000,113.000 C157.333,113.000 157.667,113.000 158.000,113.000 C158.333,114.333 158.667,115.667 159.000,117.000 C159.333,117.000 159.667,117.000 160.000,117.000 C160.333,120.000 160.667,123.000 161.000,126.000 C161.333,126.000 161.667,126.000 162.000,126.000 C162.333,128.000 162.667,130.000 163.000,132.000 C163.333,132.000 163.667,132.000 164.000,132.000 C164.333,133.333 164.667,134.667 165.000,136.000 C165.333,136.000 165.667,136.000 166.000,136.000 C166.000,137.000 166.000,138.000 166.000,139.000 C166.333,139.000 166.667,139.000 167.000,139.000 C169.451,145.117 165.858,147.891 175.000,148.000 C177.384,150.139 195.877,149.086 201.000,149.000 C202.052,146.889 204.124,144.367 205.000,142.000 C205.333,139.667 205.667,137.333 206.000,135.000 C206.333,135.000 206.667,135.000 207.000,135.000 C207.000,134.333 207.000,133.667 207.000,133.000 C207.333,133.000 207.667,133.000 208.000,133.000 C208.000,132.000 208.000,131.000 208.000,130.000 C208.333,130.000 208.667,130.000 209.000,130.000 C209.333,127.667 209.667,125.333 210.000,123.000 C210.333,123.000 210.667,123.000 211.000,123.000 C211.000,122.000 211.000,121.000 211.000,120.000 C211.333,120.000 211.667,120.000 212.000,120.000 C212.333,118.667 212.667,117.333 213.000,116.000 C213.333,116.000 213.667,116.000 214.000,116.000 C214.000,114.667 214.000,113.333 214.000,112.000 C214.333,112.000 214.667,112.000 215.000,112.000 C215.000,111.333 215.000,110.667 215.000,110.000 C215.333,110.000 215.667,110.000 216.000,110.000 C216.000,108.667 216.000,107.333 216.000,106.000 C216.333,106.000 216.667,106.000 217.000,106.000 C217.000,105.000 217.000,104.000 217.000,103.000 C217.333,103.000 217.667,103.000 218.000,103.000 C218.000,102.000 218.000,101.000 218.000,100.000 C218.333,100.000 218.667,100.000 219.000,100.000 C219.000,99.000 219.000,98.000 219.000,97.000 C219.333,97.000 219.667,97.000 220.000,97.000 C220.000,96.000 220.000,95.000 220.000,94.000 C220.333,94.000 220.667,94.000 221.000,94.000 C221.000,93.000 221.000,92.000 221.000,91.000 C221.333,91.000 221.667,91.000 222.000,91.000 C222.000,90.000 222.000,89.000 222.000,88.000 C222.333,88.000 222.667,88.000 223.000,88.000 C223.000,87.000 223.000,86.000 223.000,85.000 C223.333,85.000 223.667,85.000 224.000,85.000 C224.000,84.000 224.000,83.000 224.000,82.000 C224.333,82.000 224.667,82.000 225.000,82.000 C225.000,81.000 225.000,80.000 225.000,79.000 C225.333,79.000 225.667,79.000 226.000,79.000 C226.000,78.000 226.000,77.000 226.000,76.000 C226.333,76.000 226.667,76.000 227.000,76.000 C227.000,75.000 227.000,74.000 227.000,73.000 C227.333,73.000 227.667,73.000 228.000,73.000 C228.000,72.000 228.000,71.000 228.000,70.000 C228.333,70.000 228.667,70.000 229.000,70.000 C229.000,69.000 229.000,68.000 229.000,67.000 C229.333,67.000 229.667,67.000 230.000,67.000 C230.000,66.000 230.000,65.000 230.000,64.000 C230.333,64.000 230.667,64.000 231.000,64.000 C231.000,63.333 231.000,62.667 231.000,62.000 C231.333,62.000 231.667,62.000 232.000,62.000 C232.333,60.000 232.667,58.000 233.000,56.000 C233.333,56.000 233.667,56.000 234.000,56.000 C234.000,55.333 234.000,54.667 234.000,54.000 C234.333,54.000 234.667,54.000 235.000,54.000 C235.667,50.667 236.333,47.333 237.000,44.000 C238.810,39.445 241.337,34.770 242.000,29.000 C234.257,26.174 216.916,28.000 207.000,28.000 C182.002,28.000 156.998,28.000 132.000,28.000 ZM373.000,37.000 C373.970,41.758 374.066,43.804 372.000,48.000 C371.667,48.000 371.333,48.000 371.000,48.000 C371.000,49.000 371.000,50.000 371.000,51.000 C370.333,51.333 369.667,51.667 369.000,52.000 C369.000,52.667 369.000,53.333 369.000,54.000 C368.667,54.000 368.333,54.000 368.000,54.000 C368.000,54.667 368.000,55.333 368.000,56.000 C367.667,56.000 367.333,56.000 367.000,56.000 C367.000,57.000 367.000,58.000 367.000,59.000 C366.333,59.333 365.667,59.667 365.000,60.000 C364.000,63.000 363.000,66.000 362.000,69.000 C361.333,69.333 360.667,69.667 360.000,70.000 C360.000,70.667 360.000,71.333 360.000,72.000 C359.667,72.000 359.333,72.000 359.000,72.000 C359.000,72.667 359.000,73.333 359.000,74.000 C358.667,74.000 358.333,74.000 358.000,74.000 C358.000,75.000 358.000,76.000 358.000,77.000 C357.333,77.333 356.667,77.667 356.000,78.000 C355.000,81.000 354.000,84.000 353.000,87.000 C352.000,87.667 351.000,88.333 350.000,89.000 C349.667,90.666 349.333,92.334 349.000,94.000 C348.333,94.333 347.667,94.667 347.000,95.000 C346.667,96.333 346.333,97.667 346.000,99.000 C345.333,99.333 344.667,99.667 344.000,100.000 C344.000,101.000 344.000,102.000 344.000,103.000 C343.667,103.000 343.333,103.000 343.000,103.000 C343.000,103.667 343.000,104.333 343.000,105.000 C342.333,105.333 341.667,105.667 341.000,106.000 C340.667,107.333 340.333,108.667 340.000,110.000 C339.667,110.000 339.333,110.000 339.000,110.000 C339.000,111.000 339.000,112.000 339.000,113.000 C338.667,113.000 338.333,113.000 338.000,113.000 C337.333,115.000 336.667,117.000 336.000,119.000 C335.667,119.000 335.333,119.000 335.000,119.000 C334.667,120.333 334.333,121.667 334.000,123.000 C333.000,123.667 332.000,124.333 331.000,125.000 C331.000,125.667 331.000,126.333 331.000,127.000 C330.333,127.333 329.667,127.667 329.000,128.000 C329.000,129.333 329.000,130.667 329.000,132.000 C328.333,132.333 327.667,132.667 327.000,133.000 C327.000,133.667 327.000,134.333 327.000,135.000 C326.667,135.000 326.333,135.000 326.000,135.000 C326.000,135.667 326.000,136.333 326.000,137.000 C325.667,137.000 325.333,137.000 325.000,137.000 C325.000,137.667 325.000,138.333 325.000,139.000 C324.667,139.000 324.333,139.000 324.000,139.000 C324.000,139.667 324.000,140.333 324.000,141.000 C323.667,141.000 323.333,141.000 323.000,141.000 C323.000,141.667 323.000,142.333 323.000,143.000 C322.333,143.333 321.667,143.667 321.000,144.000 C321.000,144.667 321.000,145.333 321.000,146.000 C320.667,146.000 320.333,146.000 320.000,146.000 C319.667,147.667 319.333,149.333 319.000,151.000 C318.333,151.333 317.667,151.667 317.000,152.000 C316.000,155.000 315.000,158.000 314.000,161.000 C313.000,161.667 312.000,162.333 311.000,163.000 C311.000,164.000 311.000,165.000 311.000,166.000 C310.667,166.000 310.333,166.000 310.000,166.000 C309.667,167.333 309.333,168.667 309.000,170.000 C308.667,170.000 308.333,170.000 308.000,170.000 C308.000,171.000 308.000,172.000 308.000,173.000 C307.667,173.000 307.333,173.000 307.000,173.000 C307.000,173.667 307.000,174.333 307.000,175.000 C306.667,175.000 306.333,175.000 306.000,175.000 C306.000,176.000 306.000,177.000 306.000,178.000 C305.667,178.000 305.333,178.000 305.000,178.000 C304.667,179.333 304.333,180.667 304.000,182.000 C303.667,182.000 303.333,182.000 303.000,182.000 C303.000,183.000 303.000,184.000 303.000,185.000 C302.667,185.000 302.333,185.000 302.000,185.000 C302.000,185.667 302.000,186.333 302.000,187.000 C301.333,187.333 300.667,187.667 300.000,188.000 C300.000,188.667 300.000,189.333 300.000,190.000 C299.667,190.000 299.333,190.000 299.000,190.000 C299.000,190.667 299.000,191.333 299.000,192.000 C298.667,192.000 298.333,192.000 298.000,192.000 C298.000,192.667 298.000,193.333 298.000,194.000 C297.667,194.000 297.333,194.000 297.000,194.000 C297.000,194.667 297.000,195.333 297.000,196.000 C295.667,197.000 294.333,198.000 293.000,199.000 C293.000,200.000 293.000,201.000 293.000,202.000 C292.667,202.000 292.333,202.000 292.000,202.000 C292.000,202.667 292.000,203.333 292.000,204.000 C291.667,204.000 291.333,204.000 291.000,204.000 C291.000,204.667 291.000,205.333 291.000,206.000 C290.333,206.333 289.667,206.667 289.000,207.000 C288.667,208.667 288.333,210.333 288.000,212.000 C287.667,212.000 287.333,212.000 287.000,212.000 C287.000,212.667 287.000,213.333 287.000,214.000 C286.333,214.333 285.667,214.667 285.000,215.000 C284.333,217.000 283.667,219.000 283.000,221.000 C282.667,221.000 282.333,221.000 282.000,221.000 C282.000,222.000 282.000,223.000 282.000,224.000 C281.333,224.333 280.667,224.667 280.000,225.000 C280.000,225.667 280.000,226.333 280.000,227.000 C279.667,227.000 279.333,227.000 279.000,227.000 C278.667,229.000 278.333,231.000 278.000,233.000 C277.667,233.000 277.333,233.000 277.000,233.000 C276.333,235.000 275.667,237.000 275.000,239.000 C274.667,239.000 274.333,239.000 274.000,239.000 C274.000,239.667 274.000,240.333 274.000,241.000 C273.667,241.000 273.333,241.000 273.000,241.000 C273.000,241.667 273.000,242.333 273.000,243.000 C272.667,243.000 272.333,243.000 272.000,243.000 C272.000,243.667 272.000,244.333 272.000,245.000 C271.667,245.000 271.333,245.000 271.000,245.000 C270.667,246.667 270.333,248.334 270.000,250.000 C269.333,250.333 268.667,250.667 268.000,251.000 C268.000,251.667 268.000,252.333 268.000,253.000 C267.667,253.000 267.333,253.000 267.000,253.000 C267.000,253.667 267.000,254.333 267.000,255.000 C266.667,255.000 266.333,255.000 266.000,255.000 C264.667,258.666 263.333,262.334 262.000,266.000 C260.667,266.667 259.333,267.333 258.000,268.000 C257.000,271.000 256.000,274.000 255.000,277.000 C254.000,277.667 253.000,278.333 252.000,279.000 C251.333,281.333 250.667,283.667 250.000,286.000 C249.667,286.000 249.333,286.000 249.000,286.000 C249.000,286.667 249.000,287.333 249.000,288.000 C248.333,288.333 247.667,288.667 247.000,289.000 C246.000,292.000 245.000,295.000 244.000,298.000 C243.333,298.333 242.667,298.667 242.000,299.000 C242.000,300.000 242.000,301.000 242.000,302.000 C241.667,302.000 241.333,302.000 241.000,302.000 C241.000,302.667 241.000,303.333 241.000,304.000 C240.667,304.000 240.333,304.000 240.000,304.000 C240.000,304.667 240.000,305.333 240.000,306.000 C239.333,306.333 238.667,306.667 238.000,307.000 C235.395,311.128 236.886,314.458 231.000,316.000 C228.625,318.100 213.809,317.000 209.000,317.000 C188.093,317.000 162.668,318.580 145.000,315.000 C144.333,314.000 143.667,313.000 143.000,312.000 C142.667,312.000 142.333,312.000 142.000,312.000 C141.333,310.000 140.667,308.000 140.000,306.000 C139.333,305.667 138.667,305.333 138.000,305.000 C138.000,304.333 138.000,303.667 138.000,303.000 C137.667,303.000 137.333,303.000 137.000,303.000 C137.000,302.333 137.000,301.667 137.000,301.000 C136.667,301.000 136.333,301.000 136.000,301.000 C136.000,300.333 136.000,299.667 136.000,299.000 C135.667,299.000 135.333,299.000 135.000,299.000 C135.000,298.333 135.000,297.667 135.000,297.000 C134.667,297.000 134.333,297.000 134.000,297.000 C134.000,296.333 134.000,295.667 134.000,295.000 C133.333,294.667 132.667,294.333 132.000,294.000 C132.000,293.333 132.000,292.667 132.000,292.000 C131.333,291.667 130.667,291.333 130.000,291.000 C130.000,290.333 130.000,289.667 130.000,289.000 C129.333,288.667 128.667,288.333 128.000,288.000 C128.000,287.333 128.000,286.667 128.000,286.000 C127.667,286.000 127.333,286.000 127.000,286.000 C127.000,285.000 127.000,284.000 127.000,283.000 C126.667,283.000 126.333,283.000 126.000,283.000 C126.000,282.333 126.000,281.667 126.000,281.000 C125.667,281.000 125.333,281.000 125.000,281.000 C124.667,279.000 124.333,277.000 124.000,275.000 C123.667,275.000 123.333,275.000 123.000,275.000 C122.333,273.000 121.667,271.000 121.000,269.000 C120.667,269.000 120.333,269.000 120.000,269.000 C120.000,268.333 120.000,267.667 120.000,267.000 C119.000,266.333 118.000,265.667 117.000,265.000 C117.000,264.333 117.000,263.667 117.000,263.000 C116.333,262.667 115.667,262.333 115.000,262.000 C115.000,261.333 115.000,260.667 115.000,260.000 C114.667,260.000 114.333,260.000 114.000,260.000 C114.000,259.333 114.000,258.667 114.000,258.000 C113.667,258.000 113.333,258.000 113.000,258.000 C113.000,257.333 113.000,256.667 113.000,256.000 C112.667,256.000 112.333,256.000 112.000,256.000 C112.000,255.333 112.000,254.667 112.000,254.000 C111.667,254.000 111.333,254.000 111.000,254.000 C111.000,253.333 111.000,252.667 111.000,252.000 C110.333,251.667 109.667,251.333 109.000,251.000 C107.333,246.334 105.666,241.666 104.000,237.000 C103.667,237.000 103.333,237.000 103.000,237.000 C102.667,236.000 102.333,235.000 102.000,234.000 C101.333,233.667 100.667,233.333 100.000,233.000 C99.667,231.667 99.333,230.333 99.000,229.000 C98.667,229.000 98.333,229.000 98.000,229.000 C97.667,228.000 97.333,227.000 97.000,226.000 C96.333,225.667 95.667,225.333 95.000,225.000 C95.000,224.333 95.000,223.667 95.000,223.000 C94.333,222.667 93.667,222.333 93.000,222.000 C91.667,218.000 90.333,214.000 89.000,210.000 C88.333,209.667 87.667,209.333 87.000,209.000 C86.667,207.667 86.333,206.333 86.000,205.000 C85.333,204.667 84.667,204.333 84.000,204.000 C84.000,203.333 84.000,202.667 84.000,202.000 C83.667,202.000 83.333,202.000 83.000,202.000 C83.000,201.333 83.000,200.667 83.000,200.000 C82.333,199.667 81.667,199.333 81.000,199.000 C80.667,198.000 80.333,197.000 80.000,196.000 C79.667,196.000 79.333,196.000 79.000,196.000 C78.333,194.000 77.667,192.000 77.000,190.000 C76.333,189.667 75.667,189.333 75.000,189.000 C74.667,187.334 74.333,185.666 74.000,184.000 C73.667,184.000 73.333,184.000 73.000,184.000 C73.000,183.333 73.000,182.667 73.000,182.000 C72.667,182.000 72.333,182.000 72.000,182.000 C72.000,181.333 72.000,180.667 72.000,180.000 C71.667,180.000 71.333,180.000 71.000,180.000 C71.000,179.333 71.000,178.667 71.000,178.000 C70.667,178.000 70.333,178.000 70.000,178.000 C70.000,177.333 70.000,176.667 70.000,176.000 C69.667,176.000 69.333,176.000 69.000,176.000 C68.667,174.667 68.333,173.333 68.000,172.000 C67.667,172.000 67.333,172.000 67.000,172.000 C67.000,171.333 67.000,170.667 67.000,170.000 C66.667,170.000 66.333,170.000 66.000,170.000 C65.667,167.667 65.333,165.333 65.000,163.000 C64.333,162.667 63.667,162.333 63.000,162.000 C62.667,160.667 62.333,159.333 62.000,158.000 C61.333,157.667 60.667,157.333 60.000,157.000 C59.667,155.667 59.333,154.333 59.000,153.000 C58.333,152.667 57.667,152.333 57.000,152.000 C56.667,150.667 56.333,149.333 56.000,148.000 C55.333,147.667 54.667,147.333 54.000,147.000 C54.000,146.333 54.000,145.667 54.000,145.000 C53.667,145.000 53.333,145.000 53.000,145.000 C53.000,144.333 53.000,143.667 53.000,143.000 C52.667,143.000 52.333,143.000 52.000,143.000 C52.000,142.333 52.000,141.667 52.000,141.000 C51.667,141.000 51.333,141.000 51.000,141.000 C50.667,139.334 50.333,137.666 50.000,136.000 C49.667,136.000 49.333,136.000 49.000,136.000 C49.000,135.333 49.000,134.667 49.000,134.000 C48.667,134.000 48.333,134.000 48.000,134.000 C48.000,133.333 48.000,132.667 48.000,132.000 C47.667,132.000 47.333,132.000 47.000,132.000 C47.000,131.333 47.000,130.667 47.000,130.000 C46.667,130.000 46.333,130.000 46.000,130.000 C46.000,129.333 46.000,128.667 46.000,128.000 C45.667,128.000 45.333,128.000 45.000,128.000 C45.000,127.333 45.000,126.667 45.000,126.000 C44.333,125.667 43.667,125.333 43.000,125.000 C42.667,123.667 42.333,122.333 42.000,121.000 C41.333,120.667 40.667,120.333 40.000,120.000 C39.667,118.667 39.333,117.333 39.000,116.000 C38.333,115.667 37.667,115.333 37.000,115.000 C36.333,113.000 35.667,111.000 35.000,109.000 C34.333,108.667 33.667,108.333 33.000,108.000 C33.000,107.000 33.000,106.000 33.000,105.000 C32.667,105.000 32.333,105.000 32.000,105.000 C31.667,103.667 31.333,102.333 31.000,101.000 C30.667,101.000 30.333,101.000 30.000,101.000 C29.667,99.667 29.333,98.333 29.000,97.000 C28.333,96.667 27.667,96.333 27.000,96.000 C26.333,94.000 25.667,92.000 25.000,90.000 C24.333,89.667 23.667,89.333 23.000,89.000 C23.000,88.000 23.000,87.000 23.000,86.000 C22.667,86.000 22.333,86.000 22.000,86.000 C21.667,84.667 21.333,83.333 21.000,82.000 C20.667,82.000 20.333,82.000 20.000,82.000 C19.667,80.667 19.333,79.333 19.000,78.000 C18.333,77.667 17.667,77.333 17.000,77.000 C16.333,75.000 15.667,73.000 15.000,71.000 C14.333,70.667 13.667,70.333 13.000,70.000 C12.333,68.000 11.667,66.000 11.000,64.000 C10.333,63.667 9.667,63.333 9.000,63.000 C9.000,62.333 9.000,61.667 9.000,61.000 C8.667,61.000 8.333,61.000 8.000,61.000 C8.000,60.333 8.000,59.667 8.000,59.000 C7.333,58.667 6.667,58.333 6.000,58.000 C5.667,56.667 5.333,55.333 5.000,54.000 C4.333,53.667 3.667,53.333 3.000,53.000 C3.000,52.333 3.000,51.667 3.000,51.000 C1.109,47.627 0.229,47.675 -0.000,42.000 C1.139,40.861 0.398,41.996 1.000,40.000 C2.000,39.667 3.000,39.333 4.000,39.000 C4.000,38.667 4.000,38.333 4.000,38.000 C5.000,38.000 6.000,38.000 7.000,38.000 C7.000,37.667 7.000,37.333 7.000,37.000 C7.667,37.333 8.333,37.667 9.000,38.000 C17.126,34.628 28.496,37.734 39.000,36.000 C49.049,34.341 60.171,34.031 72.000,34.000 C74.000,37.000 76.000,40.000 78.000,43.000 C78.333,45.333 78.667,47.667 79.000,50.000 C79.333,50.000 79.667,50.000 80.000,50.000 C80.667,52.000 81.333,54.000 82.000,56.000 C82.333,56.000 82.667,56.000 83.000,56.000 C83.000,56.667 83.000,57.333 83.000,58.000 C83.333,58.000 83.667,58.000 84.000,58.000 C84.000,58.667 84.000,59.333 84.000,60.000 C84.333,60.000 84.667,60.000 85.000,60.000 C85.333,61.666 85.667,63.333 86.000,65.000 C86.333,65.000 86.667,65.000 87.000,65.000 C87.333,66.333 87.667,67.667 88.000,69.000 C88.333,69.000 88.667,69.000 89.000,69.000 C89.000,69.667 89.000,70.333 89.000,71.000 C89.333,71.000 89.667,71.000 90.000,71.000 C90.000,71.667 90.000,72.333 90.000,73.000 C90.333,73.000 90.667,73.000 91.000,73.000 C91.000,73.667 91.000,74.333 91.000,75.000 C91.333,75.000 91.667,75.000 92.000,75.000 C92.000,75.667 92.000,76.333 92.000,77.000 C92.333,77.000 92.667,77.000 93.000,77.000 C93.000,77.667 93.000,78.333 93.000,79.000 C93.333,79.000 93.667,79.000 94.000,79.000 C94.333,80.333 94.667,81.667 95.000,83.000 C95.333,83.000 95.667,83.000 96.000,83.000 C96.333,84.333 96.667,85.667 97.000,87.000 C97.333,87.000 97.667,87.000 98.000,87.000 C98.333,90.000 98.667,93.000 99.000,96.000 C99.333,96.000 99.667,96.000 100.000,96.000 C100.333,97.333 100.667,98.667 101.000,100.000 C101.333,100.000 101.667,100.000 102.000,100.000 C103.288,102.477 102.815,105.347 104.000,108.000 C104.333,108.000 104.667,108.000 105.000,108.000 C105.667,110.000 106.333,112.000 107.000,114.000 C107.333,114.000 107.667,114.000 108.000,114.000 C108.000,114.667 108.000,115.333 108.000,116.000 C108.333,116.000 108.667,116.000 109.000,116.000 C109.000,117.000 109.000,118.000 109.000,119.000 C109.333,119.000 109.667,119.000 110.000,119.000 C110.000,119.667 110.000,120.333 110.000,121.000 C110.333,121.000 110.667,121.000 111.000,121.000 C111.333,123.000 111.667,125.000 112.000,127.000 C112.333,127.000 112.667,127.000 113.000,127.000 C113.333,129.333 113.667,131.667 114.000,134.000 C114.333,134.000 114.667,134.000 115.000,134.000 C115.000,134.667 115.000,135.333 115.000,136.000 C115.667,136.333 116.333,136.667 117.000,137.000 C117.000,137.667 117.000,138.333 117.000,139.000 C117.667,139.333 118.333,139.667 119.000,140.000 C120.000,143.333 121.000,146.667 122.000,150.000 C122.333,150.000 122.667,150.000 123.000,150.000 C123.000,150.667 123.000,151.333 123.000,152.000 C123.667,152.333 124.333,152.667 125.000,153.000 C125.000,154.000 125.000,155.000 125.000,156.000 C125.333,156.000 125.667,156.000 126.000,156.000 C126.000,157.000 126.000,158.000 126.000,159.000 C126.333,159.000 126.667,159.000 127.000,159.000 C127.000,160.000 127.000,161.000 127.000,162.000 C127.333,162.000 127.667,162.000 128.000,162.000 C128.000,163.000 128.000,164.000 128.000,165.000 C128.333,165.000 128.667,165.000 129.000,165.000 C129.000,165.667 129.000,166.333 129.000,167.000 C129.667,167.333 130.333,167.667 131.000,168.000 C131.333,170.666 131.667,173.334 132.000,176.000 C132.333,176.000 132.667,176.000 133.000,176.000 C133.000,176.667 133.000,177.333 133.000,178.000 C133.333,178.000 133.667,178.000 134.000,178.000 C134.333,179.667 134.667,181.333 135.000,183.000 C135.667,183.333 136.333,183.667 137.000,184.000 C137.667,187.000 138.333,190.000 139.000,193.000 C139.333,193.000 139.667,193.000 140.000,193.000 C140.333,194.333 140.667,195.667 141.000,197.000 C141.333,197.000 141.667,197.000 142.000,197.000 C142.000,198.000 142.000,199.000 142.000,200.000 C142.333,200.000 142.667,200.000 143.000,200.000 C143.000,200.667 143.000,201.333 143.000,202.000 C143.333,202.000 143.667,202.000 144.000,202.000 C144.000,202.667 144.000,203.333 144.000,204.000 C144.333,204.000 144.667,204.000 145.000,204.000 C145.333,205.000 145.667,206.000 146.000,207.000 C146.667,207.333 147.333,207.667 148.000,208.000 C148.333,210.666 148.667,213.334 149.000,216.000 C149.333,216.000 149.667,216.000 150.000,216.000 C150.333,217.666 150.667,219.334 151.000,221.000 C151.333,221.000 151.667,221.000 152.000,221.000 C152.333,222.333 152.667,223.667 153.000,225.000 C153.333,225.000 153.667,225.000 154.000,225.000 C154.000,225.667 154.000,226.333 154.000,227.000 C154.333,227.000 154.667,227.000 155.000,227.000 C155.000,228.000 155.000,229.000 155.000,230.000 C155.333,230.000 155.667,230.000 156.000,230.000 C156.333,231.333 156.667,232.667 157.000,234.000 C157.667,234.333 158.333,234.667 159.000,235.000 C159.000,235.667 159.000,236.333 159.000,237.000 C159.667,237.333 160.333,237.667 161.000,238.000 C161.333,239.000 161.667,240.000 162.000,241.000 C180.665,241.000 199.335,241.000 218.000,241.000 C218.667,239.000 219.333,237.000 220.000,235.000 C220.333,235.000 220.667,235.000 221.000,235.000 C221.000,234.333 221.000,233.667 221.000,233.000 C221.333,233.000 221.667,233.000 222.000,233.000 C222.333,231.000 222.667,229.000 223.000,227.000 C223.333,227.000 223.667,227.000 224.000,227.000 C224.333,225.667 224.667,224.333 225.000,223.000 C225.333,223.000 225.667,223.000 226.000,223.000 C226.333,221.000 226.667,219.000 227.000,217.000 C227.333,217.000 227.667,217.000 228.000,217.000 C228.000,216.333 228.000,215.667 228.000,215.000 C228.333,215.000 228.667,215.000 229.000,215.000 C229.000,213.667 229.000,212.333 229.000,211.000 C229.333,211.000 229.667,211.000 230.000,211.000 C230.333,209.667 230.667,208.333 231.000,207.000 C231.333,207.000 231.667,207.000 232.000,207.000 C232.000,205.667 232.000,204.333 232.000,203.000 C232.333,203.000 232.667,203.000 233.000,203.000 C233.000,202.333 233.000,201.667 233.000,201.000 C233.333,201.000 233.667,201.000 234.000,201.000 C234.333,199.333 234.667,197.667 235.000,196.000 C235.333,196.000 235.667,196.000 236.000,196.000 C236.000,195.333 236.000,194.667 236.000,194.000 C236.333,194.000 236.667,194.000 237.000,194.000 C237.333,192.667 237.667,191.333 238.000,190.000 C238.333,190.000 238.667,190.000 239.000,190.000 C239.000,189.000 239.000,188.000 239.000,187.000 C239.333,187.000 239.667,187.000 240.000,187.000 C240.000,186.333 240.000,185.667 240.000,185.000 C240.333,185.000 240.667,185.000 241.000,185.000 C241.333,183.000 241.667,181.000 242.000,179.000 C242.333,179.000 242.667,179.000 243.000,179.000 C243.000,178.333 243.000,177.667 243.000,177.000 C243.333,177.000 243.667,177.000 244.000,177.000 C244.000,176.000 244.000,175.000 244.000,174.000 C244.333,174.000 244.667,174.000 245.000,174.000 C245.000,173.000 245.000,172.000 245.000,171.000 C245.333,171.000 245.667,171.000 246.000,171.000 C246.000,170.333 246.000,169.667 246.000,169.000 C246.333,169.000 246.667,169.000 247.000,169.000 C247.000,168.333 247.000,167.667 247.000,167.000 C247.333,167.000 247.667,167.000 248.000,167.000 C248.000,166.333 248.000,165.667 248.000,165.000 C248.333,165.000 248.667,165.000 249.000,165.000 C249.000,163.667 249.000,162.333 249.000,161.000 C249.333,161.000 249.667,161.000 250.000,161.000 C250.333,159.667 250.667,158.333 251.000,157.000 C251.333,157.000 251.667,157.000 252.000,157.000 C253.000,152.667 254.000,148.333 255.000,144.000 C255.667,143.667 256.333,143.333 257.000,143.000 C257.333,141.000 257.667,139.000 258.000,137.000 C258.667,136.667 259.333,136.333 260.000,136.000 C260.333,134.667 260.667,133.333 261.000,132.000 C261.333,132.000 261.667,132.000 262.000,132.000 C262.000,131.333 262.000,130.667 262.000,130.000 C262.333,130.000 262.667,130.000 263.000,130.000 C263.667,128.000 264.333,126.000 265.000,124.000 C265.333,124.000 265.667,124.000 266.000,124.000 C266.000,123.000 266.000,122.000 266.000,121.000 C266.333,121.000 266.667,121.000 267.000,121.000 C267.667,119.000 268.333,117.000 269.000,115.000 C269.333,115.000 269.667,115.000 270.000,115.000 C270.000,113.667 270.000,112.333 270.000,111.000 C270.333,111.000 270.667,111.000 271.000,111.000 C271.000,110.333 271.000,109.667 271.000,109.000 C271.333,109.000 271.667,109.000 272.000,109.000 C272.000,108.000 272.000,107.000 272.000,106.000 C272.333,106.000 272.667,106.000 273.000,106.000 C273.000,105.000 273.000,104.000 273.000,103.000 C273.333,103.000 273.667,103.000 274.000,103.000 C274.000,102.000 274.000,101.000 274.000,100.000 C274.333,100.000 274.667,100.000 275.000,100.000 C275.333,98.000 275.667,96.000 276.000,94.000 C276.333,94.000 276.667,94.000 277.000,94.000 C277.333,92.334 277.667,90.666 278.000,89.000 C278.333,89.000 278.667,89.000 279.000,89.000 C279.333,87.667 279.667,86.333 280.000,85.000 C280.333,85.000 280.667,85.000 281.000,85.000 C281.000,84.333 281.000,83.667 281.000,83.000 C281.333,83.000 281.667,83.000 282.000,83.000 C282.000,82.000 282.000,81.000 282.000,80.000 C282.333,80.000 282.667,80.000 283.000,80.000 C283.667,78.000 284.333,76.000 285.000,74.000 C285.333,74.000 285.667,74.000 286.000,74.000 C286.000,72.667 286.000,71.333 286.000,70.000 C286.333,70.000 286.667,70.000 287.000,70.000 C287.000,69.333 287.000,68.667 287.000,68.000 C287.333,68.000 287.667,68.000 288.000,68.000 C288.333,66.000 288.667,64.000 289.000,62.000 C289.333,62.000 289.667,62.000 290.000,62.000 C290.000,61.333 290.000,60.667 290.000,60.000 C290.667,59.667 291.333,59.333 292.000,59.000 C292.000,58.333 292.000,57.667 292.000,57.000 C292.333,57.000 292.667,57.000 293.000,57.000 C293.000,55.667 293.000,54.333 293.000,53.000 C293.667,52.667 294.333,52.333 295.000,52.000 C295.000,51.333 295.000,50.667 295.000,50.000 C295.333,50.000 295.667,50.000 296.000,50.000 C296.000,49.000 296.000,48.000 296.000,47.000 C298.000,42.667 300.000,38.333 302.000,34.000 C302.667,34.000 303.333,34.000 304.000,34.000 C304.000,33.667 304.000,33.333 304.000,33.000 C304.667,33.000 305.333,33.000 306.000,33.000 C306.000,32.667 306.000,32.333 306.000,32.000 C308.047,31.328 309.000,33.000 309.000,33.000 C313.000,33.000 317.000,33.000 321.000,33.000 C321.000,33.333 321.000,33.667 321.000,34.000 C330.332,34.000 339.668,34.000 349.000,34.000 C349.000,34.333 349.000,34.667 349.000,35.000 C353.000,35.000 357.000,35.000 361.000,35.000 C361.000,35.333 361.000,35.667 361.000,36.000 C363.666,35.667 366.334,35.333 369.000,35.000 C369.000,35.333 369.000,35.667 369.000,36.000 C370.333,36.333 371.667,36.667 373.000,37.000 ZM307.000,41.000 C306.333,43.000 305.667,45.000 305.000,47.000 C304.667,47.000 304.333,47.000 304.000,47.000 C304.000,47.667 304.000,48.333 304.000,49.000 C303.667,49.000 303.333,49.000 303.000,49.000 C303.000,50.000 303.000,51.000 303.000,52.000 C302.667,52.000 302.333,52.000 302.000,52.000 C301.667,53.333 301.333,54.667 301.000,56.000 C300.667,56.000 300.333,56.000 300.000,56.000 C299.667,58.000 299.333,60.000 299.000,62.000 C298.333,62.333 297.667,62.667 297.000,63.000 C297.000,64.000 297.000,65.000 297.000,66.000 C296.667,66.000 296.333,66.000 296.000,66.000 C296.000,67.000 296.000,68.000 296.000,69.000 C295.667,69.000 295.333,69.000 295.000,69.000 C293.071,73.019 293.374,73.764 294.000,78.000 C301.414,79.360 312.031,79.000 321.000,79.000 C329.971,79.000 340.584,79.351 348.000,78.000 C349.015,76.038 351.123,73.929 352.000,72.000 C352.333,70.333 352.667,68.666 353.000,67.000 C353.667,66.667 354.333,66.333 355.000,66.000 C355.000,65.333 355.000,64.667 355.000,64.000 C355.333,64.000 355.667,64.000 356.000,64.000 C356.333,62.333 356.667,60.666 357.000,59.000 C357.667,58.667 358.333,58.333 359.000,58.000 C359.333,56.667 359.667,55.333 360.000,54.000 C361.664,50.925 364.056,49.007 365.000,45.000 C364.000,44.667 363.000,44.333 362.000,44.000 C358.394,40.612 348.567,42.292 342.000,42.000 C332.114,41.560 317.928,38.997 307.000,41.000 ZM49.000,43.000 C46.675,44.924 41.781,43.365 38.000,44.000 C37.667,44.000 37.333,44.000 37.000,44.000 C37.000,44.333 37.000,44.667 37.000,45.000 C29.966,46.996 16.011,42.026 13.000,48.000 C13.000,49.333 13.000,50.667 13.000,52.000 C14.977,53.766 13.830,54.193 15.000,56.000 C15.667,56.333 16.333,56.667 17.000,57.000 C17.333,58.000 17.667,59.000 18.000,60.000 C18.333,60.000 18.667,60.000 19.000,60.000 C19.667,62.000 20.333,64.000 21.000,66.000 C21.667,66.333 22.333,66.667 23.000,67.000 C23.667,69.000 24.333,71.000 25.000,73.000 C25.667,73.333 26.333,73.667 27.000,74.000 C27.891,75.390 27.704,77.987 29.000,79.000 C32.383,81.643 38.970,80.999 45.000,81.000 C56.999,81.000 69.001,81.000 81.000,81.000 C82.212,78.872 83.252,78.823 84.000,76.000 C83.667,76.000 83.333,76.000 83.000,76.000 C82.667,74.333 82.333,72.666 82.000,71.000 C81.667,71.000 81.333,71.000 81.000,71.000 C81.000,70.333 81.000,69.667 81.000,69.000 C80.333,68.667 79.667,68.333 79.000,68.000 C78.000,65.000 77.000,62.000 76.000,59.000 C75.667,59.000 75.333,59.000 75.000,59.000 C75.000,58.333 75.000,57.667 75.000,57.000 C74.667,57.000 74.333,57.000 74.000,57.000 C74.000,56.333 74.000,55.667 74.000,55.000 C73.333,54.667 72.667,54.333 72.000,54.000 C71.667,52.000 71.333,50.000 71.000,48.000 C70.333,47.667 69.667,47.333 69.000,47.000 C69.000,46.333 69.000,45.667 69.000,45.000 C68.611,44.413 67.660,44.192 67.000,43.000 C61.001,43.000 54.999,43.000 49.000,43.000 ZM341.000,94.000 C341.465,91.411 341.959,89.577 342.000,86.000 C337.667,84.410 329.912,85.000 324.000,85.000 C312.334,85.000 300.665,85.000 289.000,85.000 C287.456,88.280 286.137,88.864 286.000,94.000 C290.333,95.590 298.088,95.000 304.000,95.000 C315.665,95.000 327.334,95.000 339.000,95.000 C340.139,93.861 339.004,94.602 341.000,94.000 ZM39.000,87.000 C36.729,89.672 35.259,88.811 35.000,94.000 C36.333,95.000 37.667,96.000 39.000,97.000 C39.000,97.333 39.000,97.667 39.000,98.000 C55.332,98.000 71.668,98.000 88.000,98.000 C89.643,94.903 89.898,96.204 90.000,91.000 C88.568,90.219 85.989,88.230 85.000,87.000 C69.668,87.000 54.332,87.000 39.000,87.000 ZM334.000,102.000 C317.002,102.000 299.998,102.000 283.000,102.000 C280.760,105.851 279.961,105.142 280.000,112.000 C284.088,113.501 291.356,113.000 297.000,113.000 C307.999,113.000 319.001,113.000 330.000,113.000 C330.596,111.878 331.736,111.438 332.000,111.000 C332.000,110.333 332.000,109.667 332.000,109.000 C332.333,109.000 332.667,109.000 333.000,109.000 C333.000,107.333 333.000,105.666 333.000,104.000 C333.010,103.968 333.617,104.070 334.000,102.000 ZM42.000,105.000 C42.333,107.000 42.667,109.000 43.000,111.000 C44.071,111.585 44.600,112.761 45.000,113.000 C45.667,113.000 46.333,113.000 47.000,113.000 C47.000,113.333 47.000,113.667 47.000,114.000 C51.666,114.000 56.334,114.000 61.000,114.000 C72.438,114.000 86.189,114.812 96.000,113.000 C96.605,111.396 96.881,110.625 97.000,108.000 C96.667,108.000 96.333,108.000 96.000,108.000 C96.000,107.333 96.000,106.667 96.000,106.000 C95.667,106.000 95.333,106.000 95.000,106.000 C94.667,105.333 94.333,104.667 94.000,104.000 C77.335,104.000 60.665,104.000 44.000,104.000 C42.861,105.139 43.996,104.398 42.000,105.000 ZM324.000,119.000 C308.335,119.000 292.665,119.000 277.000,119.000 C276.219,120.432 274.230,123.011 273.000,124.000 C273.333,125.666 273.667,127.333 274.000,129.000 C274.333,129.000 274.667,129.000 275.000,129.000 C277.048,130.812 283.298,129.999 287.000,130.000 C297.999,130.000 309.001,130.000 320.000,130.000 C321.139,128.861 320.004,129.602 322.000,129.000 C322.605,127.396 322.881,126.625 323.000,124.000 C323.333,124.000 323.667,124.000 324.000,124.000 C324.000,122.333 324.000,120.667 324.000,119.000 ZM52.000,121.000 C52.126,124.415 53.999,130.001 56.000,131.000 C71.998,131.000 88.002,131.000 104.000,131.000 C103.978,126.419 102.673,122.975 99.000,122.000 C96.832,120.083 89.876,121.000 86.000,121.000 C74.668,121.000 63.332,121.000 52.000,121.000 ZM316.000,136.000 C300.668,136.000 285.332,136.000 270.000,136.000 C268.588,138.663 267.970,140.220 268.000,145.000 C275.822,147.879 298.507,146.047 309.000,146.000 C309.000,145.667 309.000,145.333 309.000,145.000 C310.000,145.000 311.000,145.000 312.000,145.000 C312.000,144.667 312.000,144.333 312.000,144.000 C312.333,144.000 312.667,144.000 313.000,144.000 C313.945,142.199 314.385,142.426 315.000,140.000 C315.333,140.000 315.667,140.000 316.000,140.000 C316.000,138.667 316.000,137.333 316.000,136.000 ZM61.000,138.000 C61.057,142.557 62.171,142.788 63.000,146.000 C76.505,148.411 94.790,147.013 110.000,147.000 C110.650,145.281 110.952,143.860 111.000,141.000 C110.043,140.458 108.000,138.000 108.000,138.000 C92.335,138.000 76.665,138.000 61.000,138.000 ZM260.000,153.000 C259.667,155.000 259.333,157.000 259.000,159.000 C267.404,163.340 291.601,161.070 304.000,161.000 C305.011,159.189 306.209,158.031 308.000,157.000 C308.000,155.667 308.000,154.333 308.000,153.000 C294.343,151.696 273.593,150.534 260.000,153.000 ZM70.000,153.000 C70.027,156.337 70.526,157.527 71.000,160.000 C79.404,164.340 103.601,162.070 116.000,162.000 C117.094,159.922 117.611,160.229 118.000,157.000 C116.281,155.873 116.645,156.367 116.000,154.000 C102.803,151.643 84.896,152.987 70.000,153.000 ZM256.000,168.000 C254.292,170.937 253.109,170.863 253.000,176.000 C255.731,177.584 255.446,178.742 260.000,179.000 C261.861,177.435 266.604,178.003 270.000,178.000 C275.999,178.000 282.001,178.000 288.000,178.000 C289.267,178.204 291.499,179.918 294.000,179.000 C294.000,178.667 294.000,178.333 294.000,178.000 C298.020,176.076 299.649,175.707 300.000,170.000 C291.729,165.728 268.215,167.930 256.000,168.000 ZM79.000,170.000 C79.000,172.000 79.000,174.000 79.000,176.000 C79.953,176.541 82.000,179.000 82.000,179.000 C95.999,179.000 110.001,179.000 124.000,179.000 C124.000,177.000 124.000,175.000 124.000,173.000 C123.333,172.667 122.667,172.333 122.000,172.000 C121.667,171.000 121.333,170.000 121.000,169.000 C107.668,169.000 94.332,169.000 81.000,169.000 C79.861,170.139 80.996,169.398 79.000,170.000 ZM248.000,195.000 C261.289,195.083 277.384,196.122 289.000,194.000 C289.333,193.000 289.667,192.000 290.000,191.000 C290.333,191.000 290.667,191.000 291.000,191.000 C291.960,189.317 290.239,185.135 290.000,184.000 C276.711,183.917 260.616,182.878 249.000,185.000 C248.055,186.801 247.615,186.574 247.000,189.000 C246.667,189.000 246.333,189.000 246.000,189.000 C244.645,191.891 247.719,192.416 248.000,193.000 C248.000,193.667 248.000,194.333 248.000,195.000 ZM86.000,187.000 C85.667,188.333 85.333,189.667 85.000,191.000 C85.333,191.000 85.667,191.000 86.000,191.000 C86.723,193.762 86.279,193.237 89.000,194.000 C91.184,196.478 95.291,195.994 100.000,196.000 C109.564,196.011 121.018,196.533 129.000,195.000 C129.443,192.523 129.919,191.329 130.000,188.000 C129.333,188.000 128.667,188.000 128.000,188.000 C127.667,187.333 127.333,186.667 127.000,186.000 C123.334,186.000 119.666,186.000 116.000,186.000 C106.108,185.997 94.308,185.477 86.000,187.000 ZM282.000,201.000 C269.001,201.000 255.999,201.000 243.000,201.000 C241.127,204.146 239.301,203.838 239.000,209.000 C240.408,209.736 242.023,210.797 243.000,212.000 C256.207,212.185 272.143,212.994 281.000,209.000 C281.333,206.334 281.667,203.666 282.000,201.000 ZM138.000,212.000 C137.667,210.000 137.333,208.000 137.000,206.000 C135.568,205.219 132.989,203.230 132.000,202.000 C122.001,202.000 111.999,202.000 102.000,202.000 C102.000,202.333 102.000,202.667 102.000,203.000 C100.333,203.333 98.666,203.667 97.000,204.000 C96.423,205.528 96.238,205.641 96.000,208.000 C97.333,209.000 98.667,210.000 100.000,211.000 C100.000,211.333 100.000,211.667 100.000,212.000 C112.665,212.000 125.335,212.000 138.000,212.000 ZM233.000,225.000 C233.667,225.000 234.333,225.000 235.000,225.000 C235.333,225.667 235.667,226.333 236.000,227.000 C239.000,227.000 242.000,227.000 245.000,227.000 C254.404,227.012 265.481,227.661 272.000,225.000 C273.091,222.551 273.813,221.775 274.000,218.000 C266.166,215.112 248.057,216.950 238.000,217.000 C236.861,218.139 237.996,217.398 236.000,218.000 C235.055,219.801 234.615,219.574 234.000,222.000 C233.667,222.000 233.333,222.000 233.000,222.000 C233.000,223.000 233.000,224.000 233.000,225.000 ZM103.000,220.000 C103.333,221.667 103.667,223.333 104.000,225.000 C105.023,225.576 105.630,226.779 106.000,227.000 C106.667,227.000 107.333,227.000 108.000,227.000 C108.000,227.333 108.000,227.667 108.000,228.000 C111.000,228.000 114.000,228.000 117.000,228.000 C124.173,228.008 140.458,229.365 144.000,226.000 C144.333,226.000 144.667,226.000 145.000,226.000 C145.000,224.334 145.000,222.667 145.000,221.000 C143.592,220.264 141.977,219.203 141.000,218.000 C130.001,218.000 118.999,218.000 108.000,218.000 C108.000,218.333 108.000,218.667 108.000,219.000 C106.334,219.333 104.666,219.667 103.000,220.000 ZM228.000,239.000 C238.134,240.812 252.236,240.013 264.000,240.000 C264.605,238.396 264.881,237.625 265.000,235.000 C264.000,234.667 263.000,234.333 262.000,234.000 C262.000,233.667 262.000,233.333 262.000,233.000 C261.333,233.000 260.667,233.000 260.000,233.000 C260.000,232.667 260.000,232.333 260.000,232.000 C251.334,232.000 242.666,232.000 234.000,232.000 C234.000,232.333 234.000,232.667 234.000,233.000 C231.144,234.316 230.702,233.346 229.000,236.000 C228.667,236.000 228.333,236.000 228.000,236.000 C228.000,237.000 228.000,238.000 228.000,239.000 ZM149.000,235.000 C138.866,233.188 124.764,233.987 113.000,234.000 C112.395,235.604 112.119,236.375 112.000,239.000 C119.699,242.987 136.907,241.075 148.000,241.000 C148.844,239.865 147.873,240.855 149.000,240.000 C149.000,238.334 149.000,236.666 149.000,235.000 ZM259.000,246.000 C247.335,246.000 235.666,246.000 224.000,246.000 C224.000,246.333 224.000,246.667 224.000,247.000 C223.000,247.000 222.000,247.000 221.000,247.000 C221.000,247.333 221.000,247.667 221.000,248.000 C219.000,248.333 217.000,248.667 215.000,249.000 C215.000,249.333 215.000,249.667 215.000,250.000 C206.001,250.000 196.999,250.000 188.000,250.000 C177.334,250.000 166.666,250.000 156.000,250.000 C156.000,249.667 156.000,249.333 156.000,249.000 C154.667,248.667 153.333,248.333 152.000,248.000 C152.000,247.667 152.000,247.333 152.000,247.000 C141.668,247.000 131.332,247.000 121.000,247.000 C119.618,249.612 119.231,248.693 119.000,253.000 C121.401,254.645 119.629,253.757 121.000,256.000 C121.333,256.000 121.667,256.000 122.000,256.000 C122.000,256.667 122.000,257.333 122.000,258.000 C122.667,258.333 123.333,258.667 124.000,259.000 C124.000,259.667 124.000,260.333 124.000,261.000 C124.667,261.333 125.333,261.667 126.000,262.000 C126.000,262.667 126.000,263.333 126.000,264.000 C126.333,264.000 126.667,264.000 127.000,264.000 C127.000,264.667 127.000,265.333 127.000,266.000 C127.333,266.000 127.667,266.000 128.000,266.000 C128.000,266.667 128.000,267.333 128.000,268.000 C128.667,268.333 129.333,268.667 130.000,269.000 C130.333,270.333 130.667,271.667 131.000,273.000 C131.333,273.000 131.667,273.000 132.000,273.000 C132.333,274.333 132.667,275.667 133.000,277.000 C133.333,277.000 133.667,277.000 134.000,277.000 C134.000,278.000 134.000,279.000 134.000,280.000 C134.333,280.000 134.667,280.000 135.000,280.000 C135.000,280.667 135.000,281.333 135.000,282.000 C135.333,282.000 135.667,282.000 136.000,282.000 C136.000,282.667 136.000,283.333 136.000,284.000 C136.333,284.000 136.667,284.000 137.000,284.000 C137.333,285.000 137.667,286.000 138.000,287.000 C138.667,287.333 139.333,287.667 140.000,288.000 C140.333,289.333 140.667,290.667 141.000,292.000 C141.667,292.333 142.333,292.667 143.000,293.000 C143.000,294.000 143.000,295.000 143.000,296.000 C143.667,296.333 144.333,296.667 145.000,297.000 C147.525,300.900 148.362,305.270 152.000,308.000 C152.000,308.333 152.000,308.667 152.000,309.000 C176.664,309.000 201.336,309.000 226.000,309.000 C226.000,308.667 226.000,308.333 226.000,308.000 C227.000,308.000 228.000,308.000 229.000,308.000 C229.000,307.667 229.000,307.333 229.000,307.000 C229.333,307.000 229.667,307.000 230.000,307.000 C233.333,301.001 236.667,294.999 240.000,289.000 C240.000,288.333 240.000,287.667 240.000,287.000 C240.333,287.000 240.667,287.000 241.000,287.000 C241.000,286.333 241.000,285.667 241.000,285.000 C241.333,285.000 241.667,285.000 242.000,285.000 C242.000,284.333 242.000,283.667 242.000,283.000 C242.333,283.000 242.667,283.000 243.000,283.000 C243.000,282.333 243.000,281.667 243.000,281.000 C243.333,281.000 243.667,281.000 244.000,281.000 C244.000,280.333 244.000,279.667 244.000,279.000 C244.333,279.000 244.667,279.000 245.000,279.000 C245.000,278.333 245.000,277.667 245.000,277.000 C245.333,277.000 245.667,277.000 246.000,277.000 C246.000,276.333 246.000,275.667 246.000,275.000 C246.667,274.667 247.333,274.333 248.000,274.000 C248.333,272.334 248.667,270.667 249.000,269.000 C249.333,269.000 249.667,269.000 250.000,269.000 C250.333,267.667 250.667,266.333 251.000,265.000 C251.333,265.000 251.667,265.000 252.000,265.000 C252.000,264.333 252.000,263.667 252.000,263.000 C252.333,263.000 252.667,263.000 253.000,263.000 C253.000,262.000 253.000,261.000 253.000,260.000 C253.667,259.667 254.333,259.333 255.000,259.000 C257.124,255.679 258.656,250.976 259.000,246.000 Z" class="cls-1"/>
</svg>
