<svg xmlns="http://www.w3.org/2000/svg" xmlns:xlink="http://www.w3.org/1999/xlink" preserveAspectRatio="xMidYMid" width="674" height="670" viewBox="0 0 674 670">
  <defs>
    <style>
      .cls-1 {
        fill: #fff;
        stroke: #fff;
        stroke-width: 2px;
        fill-rule: evenodd;
      }
    </style>
  </defs>
  <g>
    <path d="M165.000,65.000 C158.305,55.552 289.546,7.480 297.000,18.000 L308.000,37.000 L305.000,38.000 L298.000,26.000 C287.077,20.049 170.652,62.101 170.000,70.000 L172.000,85.000 L169.000,86.000 L165.000,65.000 Z" class="cls-1"/>
    <path d="M591.285,527.042 C600.680,532.589 499.881,623.019 489.420,616.842 L472.741,604.759 L475.080,602.777 L485.662,610.388 C497.608,611.358 587.240,531.644 585.003,524.654 L577.844,512.600 L580.184,510.617 L591.285,527.042 Z" class="cls-1"/>
    <path d="M416.134,643.634 C419.498,656.866 259.467,660.922 255.721,646.189 L251.596,620.523 L255.214,620.542 L257.876,636.772 C272.626,644.649 408.908,644.744 412.792,636.074 L416.699,618.369 L420.317,618.388 L416.134,643.634 Z" class="cls-1"/>
    <path d="M378.006,18.200 C378.851,6.651 510.693,53.049 509.752,65.908 L506.152,87.566 L503.201,86.429 L505.434,72.717 C500.791,61.177 384.211,19.559 378.683,25.239 L370.684,38.085 L367.733,36.948 L378.006,18.200 Z" class="cls-1"/>
    <path d="M572.476,119.056 C580.700,110.904 649.623,232.496 640.466,241.573 L623.525,255.537 L622.047,252.741 L632.738,243.870 C636.761,232.153 578.236,124.107 565.000,127.000 L553.893,129.238 L552.415,126.443 L572.476,119.056 Z" class="cls-1"/>
    <path d="M654.180,320.700 C665.752,319.548 643.625,457.457 630.741,458.738 L608.678,458.912 L609.271,455.808 L623.231,455.653 C633.805,449.095 653.954,327.048 647.342,322.576 L633.200,316.899 L633.792,313.796 L654.180,320.700 Z" class="cls-1"/>
    <path d="M33.291,240.482 C21.819,237.638 90.048,113.894 102.822,117.061 L124.006,124.409 L122.380,127.161 L108.960,122.556 C96.598,125.198 35.673,234.516 40.479,241.024 L52.084,251.243 L50.458,253.996 L33.291,240.482 Z" class="cls-1"/>
    <path d="M42.284,459.011 C31.809,464.066 7.339,324.822 19.002,319.194 L39.636,311.487 L40.098,314.653 L27.057,319.573 C19.290,329.450 40.413,452.872 48.081,454.882 L63.206,455.468 L63.668,458.634 L42.284,459.011 Z" class="cls-1"/>
    <path d="M184.624,615.184 C179.476,625.346 76.688,539.828 82.420,528.513 L93.913,510.121 L96.176,512.124 L88.942,523.783 C88.808,535.752 179.474,611.905 186.673,608.596 L198.844,599.625 L201.107,601.628 L184.624,615.184 Z" class="cls-1"/>
  </g>
</svg>
