<svg xmlns="http://www.w3.org/2000/svg" xmlns:xlink="http://www.w3.org/1999/xlink" preserveAspectRatio="xMidYMid" width="674" height="670" viewBox="0 0 674 670">
  <defs>
    <style>
      .cls-1, .cls-2 {
        stroke: #fff;
        fill: none;
      }

      .cls-1 {
        stroke-width: 2px;
        fill-rule: evenodd;
      }

      .cls-2 {
        stroke-width: 3px;
      }
    </style>
  </defs>
  <g>
    <path d="M567.606,429.919 L568.394,428.081 L596.394,440.081 L595.606,441.919 L567.606,429.919 Z" class="cls-1"/>
    <path d="M526.327,497.740 L527.673,496.260 L549.673,516.260 L548.327,517.740 L526.327,497.740 Z" class="cls-1"/>
    <path d="M579.773,391.974 L580.227,390.026 L610.227,397.026 L609.773,398.974 L579.773,391.974 Z" class="cls-1"/>
    <path d="M427.087,567.409 L428.913,566.591 L441.913,595.591 L440.087,596.409 L427.087,567.409 Z" class="cls-1"/>
    <path d="M115.553,453.106 L116.447,454.894 L90.447,467.894 L89.553,466.106 L115.553,453.106 Z" class="cls-1"/>
    <path d="M89.100,296.005 L88.900,297.995 L58.900,294.995 L59.100,293.005 L89.100,296.005 Z" class="cls-1"/>
    <path d="M344.000,86.000 L342.000,86.000 L342.000,56.000 L344.000,56.000 L344.000,86.000 Z" class="cls-1"/>
    <path d="M491.771,139.637 L490.229,138.363 L509.229,115.363 L510.771,116.637 L491.771,139.637 Z" class="cls-1"/>
    <path d="M548.445,464.832 L549.555,463.168 L576.555,481.168 L575.445,482.832 L548.445,464.832 Z" class="cls-1"/>
    <path d="M584.969,351.999 L585.031,350.000 L617.031,351.000 L616.969,352.999 L584.969,351.999 Z" class="cls-1"/>
    <path d="M585.064,310.998 L584.936,309.002 L615.936,307.002 L616.064,308.998 L585.064,310.998 Z" class="cls-1"/>
    <path d="M578.227,271.974 L577.773,270.026 L607.773,263.026 L608.227,264.974 L578.227,271.974 Z" class="cls-1"/>
    <path d="M563.371,233.928 L562.629,232.072 L592.629,220.071 L593.371,221.928 L563.371,233.928 Z" class="cls-1"/>
    <path d="M545.569,199.822 L544.431,198.178 L570.431,180.178 L571.569,181.822 L545.569,199.822 Z" class="cls-1"/>
    <path d="M520.674,167.738 L519.326,166.261 L542.326,145.261 L543.674,146.738 L520.674,167.738 Z" class="cls-1"/>
    <path d="M459.866,117.500 L458.134,116.500 L473.134,90.500 L474.866,91.500 L459.866,117.500 Z" class="cls-1"/>
    <path d="M422.939,101.344 L421.061,100.656 L432.061,70.656 L433.939,71.344 L422.939,101.344 Z" class="cls-1"/>
    <path d="M383.982,91.190 L382.018,90.810 L388.018,59.810 L389.982,60.190 L383.982,91.190 Z" class="cls-1"/>
    <path d="M303.995,87.900 L302.005,88.099 L299.005,58.099 L300.995,57.900 L303.995,87.900 Z" class="cls-1"/>
    <path d="M265.949,95.684 L264.051,96.316 L254.051,66.316 L255.949,65.684 L265.949,95.684 Z" class="cls-1"/>
    <path d="M226.901,109.566 L225.099,110.434 L212.099,83.434 L213.901,82.566 L226.901,109.566 Z" class="cls-1"/>
    <path d="M192.827,130.438 L191.173,131.562 L174.173,106.562 L175.827,105.438 L192.827,130.438 Z" class="cls-1"/>
    <path d="M162.723,156.310 L161.277,157.690 L140.277,135.690 L141.723,134.309 L162.723,156.310 Z" class="cls-1"/>
    <path d="M135.600,186.200 L134.400,187.800 L110.400,169.800 L111.600,168.200 L135.600,186.200 Z" class="cls-1"/>
    <path d="M114.447,220.106 L113.553,221.894 L85.553,207.894 L86.447,206.106 L114.447,220.106 Z" class="cls-1"/>
    <path d="M98.326,258.055 L97.674,259.945 L68.674,249.945 L69.326,248.055 L98.326,258.055 Z" class="cls-1"/>
    <path d="M86.000,337.000 L86.000,339.000 L55.000,339.000 L55.000,337.000 L86.000,337.000 Z" class="cls-1"/>
    <path d="M89.804,376.019 L90.196,377.981 L60.196,383.981 L59.804,382.019 L89.804,376.019 Z" class="cls-1"/>
    <path d="M71.326,427.945 L70.674,426.055 L99.674,416.055 L100.326,417.945 L71.326,427.945 Z" class="cls-1"/>
    <path d="M138.400,487.200 L139.600,488.800 L115.600,506.800 L114.400,505.200 L138.400,487.200 Z" class="cls-1"/>
    <path d="M165.277,516.310 L166.723,517.690 L145.723,539.690 L144.277,538.309 L165.277,516.310 Z" class="cls-1"/>
    <path d="M197.163,541.453 L198.837,542.547 L181.837,568.547 L180.163,567.453 L197.163,541.453 Z" class="cls-1"/>
    <path d="M232.099,561.566 L233.901,562.434 L220.901,589.434 L219.099,588.566 L232.099,561.566 Z" class="cls-1"/>
    <path d="M269.038,575.725 L270.962,576.275 L262.962,604.275 L261.038,603.725 L269.038,575.725 Z" class="cls-1"/>
    <path d="M309.005,582.904 L310.995,583.096 L307.995,614.096 L306.005,613.904 L309.005,582.904 Z" class="cls-1"/>
    <path d="M349.001,584.032 L350.999,583.968 L351.999,614.968 L350.001,615.032 L349.001,584.032 Z" class="cls-1"/>
    <path d="M389.026,579.227 L390.974,578.773 L397.974,608.773 L396.026,609.227 L389.026,579.227 Z" class="cls-1"/>
    <path d="M464.148,549.524 L465.852,548.476 L481.852,574.476 L480.148,575.524 L464.148,549.524 Z" class="cls-1"/>
    <path d="M496.245,525.656 L497.755,524.344 L517.755,547.344 L516.245,548.656 L496.245,525.656 Z" class="cls-1"/>
    <circle cx="336" cy="335" r="251" class="cls-2"/>
    <circle cx="336.5" cy="335.5" r="281.5" class="cls-2"/>
  </g>
</svg>
