<svg xmlns="http://www.w3.org/2000/svg" xmlns:xlink="http://www.w3.org/1999/xlink" preserveAspectRatio="xMidYMid" width="674" height="670" viewBox="0 0 674 670">
  <defs>
    <style>
      .cls-1, .cls-2, .cls-3 {
        stroke: #fff;
        fill: none;
      }

      .cls-1, .cls-2 {
        stroke-width: 3px;
      }

      .cls-2, .cls-3 {
        fill-rule: evenodd;
      }

      .cls-3 {
        stroke-width: 2px;
      }
    </style>
  </defs>
  <g>
    <circle cx="336" cy="335" r="251" class="cls-1"/>
    <path d="M62.000,271.000 C62.000,271.000 75.503,186.966 146.000,129.000 " class="cls-2"/>
    <path d="M86.000,465.000 C86.000,465.000 44.332,398.784 57.000,301.000 " class="cls-2"/>
    <path d="M218.000,591.000 C218.000,591.000 152.977,565.723 102.000,491.000 " class="cls-2"/>
    <path d="M424.000,602.000 C424.000,602.000 350.893,634.776 247.000,602.000 " class="cls-2"/>
    <path d="M571.000,490.000 C571.000,490.000 525.641,560.462 453.000,591.000 " class="cls-2"/>
    <path d="M616.000,302.000 C616.000,302.000 630.590,383.126 587.000,464.000 " class="cls-2"/>
    <path d="M529.000,131.000 C529.000,131.000 595.067,185.744 611.000,272.000 " class="cls-2"/>
    <path d="M352.000,54.588 C352.000,54.588 439.671,54.450 506.000,110.000 " class="cls-2"/>
    <path d="M169.000,108.000 C169.000,108.000 227.872,54.588 322.000,54.588 " class="cls-2"/>
    <path d="M567.606,429.919 L568.394,428.081 L596.394,440.081 L595.606,441.919 L567.606,429.919 Z" class="cls-3"/>
    <path d="M548.470,465.848 L549.530,464.152 L565.530,474.152 L564.470,475.848 L548.470,465.848 Z" class="cls-3"/>
    <path d="M526.327,497.740 L527.673,496.260 L549.673,516.260 L548.327,517.740 L526.327,497.740 Z" class="cls-3"/>
    <path d="M579.773,391.974 L580.227,390.026 L610.227,397.026 L609.773,398.974 L579.773,391.974 Z" class="cls-3"/>
    <path d="M584.969,352.000 L585.031,350.000 L617.031,351.000 L616.969,353.000 L584.969,352.000 Z" class="cls-3"/>
    <path d="M585.064,310.998 L584.936,309.002 L615.936,307.002 L616.064,308.998 L585.064,310.998 Z" class="cls-3"/>
    <path d="M578.227,271.974 L577.773,270.026 L607.773,263.026 L608.227,264.974 L578.227,271.974 Z" class="cls-3"/>
    <path d="M563.371,233.928 L562.629,232.072 L592.629,220.072 L593.371,221.928 L563.371,233.928 Z" class="cls-3"/>
    <path d="M545.569,199.822 L544.431,198.178 L570.431,180.178 L571.569,181.822 L545.569,199.822 Z" class="cls-3"/>
    <path d="M520.674,167.738 L519.326,166.262 L542.326,145.262 L543.674,146.738 L520.674,167.738 Z" class="cls-3"/>
    <path d="M490.733,139.680 L489.267,138.320 L502.267,124.320 L503.733,125.680 L490.733,139.680 Z" class="cls-3"/>
    <path d="M459.866,117.500 L458.134,116.500 L473.134,90.500 L474.866,91.500 L459.866,117.500 Z" class="cls-3"/>
    <path d="M422.939,101.344 L421.061,100.656 L432.061,70.656 L433.939,71.344 L422.939,101.344 Z" class="cls-3"/>
    <path d="M383.982,91.190 L382.018,90.810 L388.018,59.810 L389.982,60.190 L383.982,91.190 Z" class="cls-3"/>
    <path d="M344.000,85.000 L342.000,85.000 L342.000,67.000 L344.000,67.000 L344.000,85.000 Z" class="cls-3"/>
    <path d="M303.995,87.900 L302.005,88.100 L299.005,58.100 L300.995,57.900 L303.995,87.900 Z" class="cls-3"/>
    <path d="M265.949,95.684 L264.051,96.316 L254.051,66.316 L255.949,65.684 L265.949,95.684 Z" class="cls-3"/>
    <path d="M226.901,109.566 L225.099,110.434 L212.099,83.434 L213.901,82.566 L226.901,109.566 Z" class="cls-3"/>
    <path d="M192.827,130.438 L191.173,131.562 L174.173,106.562 L175.827,105.438 L192.827,130.438 Z" class="cls-3"/>
    <path d="M162.723,156.310 L161.277,157.690 L140.277,135.690 L141.723,134.310 L162.723,156.310 Z" class="cls-3"/>
    <path d="M135.600,186.200 L134.400,187.800 L110.400,169.800 L111.600,168.200 L135.600,186.200 Z" class="cls-3"/>
    <path d="M114.447,220.106 L113.553,221.894 L85.553,207.894 L86.447,206.106 L114.447,220.106 Z" class="cls-3"/>
    <path d="M98.326,258.055 L97.674,259.945 L68.674,249.945 L69.326,248.055 L98.326,258.055 Z" class="cls-3"/>
    <path d="M89.117,296.007 L88.883,297.993 L71.883,295.993 L72.117,294.007 L89.117,296.007 Z" class="cls-3"/>
    <path d="M86.000,337.000 L86.000,339.000 L55.000,339.000 L55.000,337.000 L86.000,337.000 Z" class="cls-3"/>
    <path d="M89.804,376.019 L90.196,377.981 L60.196,383.981 L59.804,382.019 L89.804,376.019 Z" class="cls-3"/>
    <path d="M71.326,427.945 L70.674,426.055 L99.674,416.055 L100.326,417.945 L71.326,427.945 Z" class="cls-3"/>
    <path d="M116.521,452.122 L117.479,453.878 L95.479,465.878 L94.521,464.122 L116.521,452.122 Z" class="cls-3"/>
    <path d="M138.400,487.200 L139.600,488.800 L115.600,506.800 L114.400,505.200 L138.400,487.200 Z" class="cls-3"/>
    <path d="M165.277,516.310 L166.723,517.690 L145.723,539.690 L144.277,538.310 L165.277,516.310 Z" class="cls-3"/>
    <path d="M197.163,541.453 L198.837,542.547 L181.837,568.547 L180.163,567.453 L197.163,541.453 Z" class="cls-3"/>
    <path d="M232.099,561.566 L233.901,562.434 L220.901,589.434 L219.099,588.566 L232.099,561.566 Z" class="cls-3"/>
    <path d="M269.038,575.725 L270.962,576.275 L262.962,604.275 L261.038,603.725 L269.038,575.725 Z" class="cls-3"/>
    <path d="M309.005,582.904 L310.995,583.096 L307.995,614.096 L306.005,613.904 L309.005,582.904 Z" class="cls-3"/>
    <path d="M349.001,584.032 L350.999,583.968 L351.999,614.968 L350.001,615.032 L349.001,584.032 Z" class="cls-3"/>
    <path d="M389.026,579.227 L390.974,578.773 L397.974,608.773 L396.026,609.227 L389.026,579.227 Z" class="cls-3"/>
    <path d="M428.051,566.316 L429.949,565.684 L435.949,583.684 L434.051,584.316 L428.051,566.316 Z" class="cls-3"/>
    <path d="M464.148,549.524 L465.852,548.476 L481.852,574.476 L480.148,575.524 L464.148,549.524 Z" class="cls-3"/>
    <path d="M496.245,525.656 L497.755,524.344 L517.755,547.344 L516.245,548.656 L496.245,525.656 Z" class="cls-3"/>
  </g>
</svg>
