<svg xmlns="http://www.w3.org/2000/svg" xmlns:xlink="http://www.w3.org/1999/xlink" preserveAspectRatio="xMidYMid" width="674" height="670" viewBox="0 0 674 670">
  <defs>
    <style>
      .cls-1 {
        stroke: #fff;
        stroke-width: 2px;
        fill: none;
        fill-rule: evenodd;
      }
    </style>
  </defs>
  <g>
    <path d="M223.143,66.743 L226.857,65.257 L228.857,70.257 L225.143,71.743 L223.143,66.743 Z" class="cls-1"/>
    <path d="M278.027,49.329 L281.973,48.671 L282.973,54.671 L279.027,55.329 L278.027,49.329 Z" class="cls-1"/>
    <path d="M172.400,94.200 L175.600,91.800 L178.600,95.800 L175.400,98.200 L172.400,94.200 Z" class="cls-1"/>
    <path d="M391.039,49.608 L394.961,50.392 L393.961,55.392 L390.039,54.608 L391.039,49.608 Z" class="cls-1"/>
    <path d="M446.211,66.106 L449.789,67.894 L447.789,71.894 L444.211,70.106 L446.211,66.106 Z" class="cls-1"/>
    <path d="M495.336,92.891 L498.664,95.109 L496.664,98.109 L493.336,95.891 L495.336,92.891 Z" class="cls-1"/>
    <path d="M540.438,127.751 L543.562,130.249 L539.562,135.249 L536.438,132.751 L540.438,127.751 Z" class="cls-1"/>
    <path d="M576.800,172.400 L579.200,175.600 L575.200,178.600 L572.800,175.400 L576.800,172.400 Z" class="cls-1"/>
    <path d="M604.257,221.143 L605.743,224.857 L600.743,226.857 L599.257,223.143 L604.257,221.143 Z" class="cls-1"/>
    <path d="M628.000,333.000 L628.000,337.000 L623.000,337.000 L623.000,333.000 L628.000,333.000 Z" class="cls-1"/>
    <path d="M623.392,390.039 L622.608,393.961 L617.608,392.961 L618.392,389.039 L623.392,390.039 Z" class="cls-1"/>
    <path d="M607.632,444.103 L606.368,447.897 L600.368,445.897 L601.632,442.103 L607.632,444.103 Z" class="cls-1"/>
    <path d="M544.200,539.400 L541.800,542.600 L537.800,539.600 L540.200,536.400 L544.200,539.400 Z" class="cls-1"/>
    <path d="M500.414,575.586 L497.586,578.414 L493.586,574.414 L496.414,571.586 L500.414,575.586 Z" class="cls-1"/>
    <path d="M339.000,626.000 L335.000,626.000 L335.000,620.000 L339.000,620.000 L339.000,626.000 Z" class="cls-1"/>
    <path d="M394.961,620.608 L391.039,621.392 L390.039,616.392 L393.961,615.608 L394.961,620.608 Z" class="cls-1"/>
    <path d="M282.000,620.000 L278.000,620.000 L278.000,615.000 L282.000,615.000 L282.000,620.000 Z" class="cls-1"/>
    <path d="M176.414,577.414 L173.586,574.586 L176.586,571.586 L179.414,574.414 L176.414,577.414 Z" class="cls-1"/>
    <path d="M132.414,542.414 L129.586,539.586 L133.586,535.586 L136.414,538.414 L132.414,542.414 Z" class="cls-1"/>
    <path d="M67.743,448.857 L66.257,445.143 L71.257,443.143 L72.743,446.857 L67.743,448.857 Z" class="cls-1"/>
    <path d="M50.329,394.973 L49.671,391.027 L55.671,390.027 L56.329,393.973 L50.329,394.973 Z" class="cls-1"/>
    <path d="M45.000,337.000 L45.000,333.000 L49.000,333.000 L49.000,337.000 L45.000,337.000 Z" class="cls-1"/>
    <path d="M129.400,129.200 L132.600,126.800 L135.600,130.800 L132.400,133.200 L129.400,129.200 Z" class="cls-1"/>
    <path d="M91.800,174.600 L94.200,171.400 L98.200,174.400 L95.800,177.600 L91.800,174.600 Z" class="cls-1"/>
    <path d="M66.608,224.961 L67.392,221.039 L72.392,222.039 L71.608,225.961 L66.608,224.961 Z" class="cls-1"/>
    <path d="M335.700,47.985 C494.474,48.132 623.543,176.746 623.985,335.251 C624.426,493.757 496.073,622.132 337.299,621.985 C178.525,621.838 49.456,493.224 49.014,334.718 C48.573,176.213 176.927,47.838 335.700,47.985 Z" class="cls-1"/>
    <path d="M335.686,43.985 C497.221,44.134 628.535,174.764 628.984,335.755 C629.434,496.746 498.848,627.134 337.313,626.985 C175.778,626.835 44.464,496.205 44.015,335.214 C43.566,174.223 174.151,43.835 335.686,43.985 Z" class="cls-1"/>
  </g>
</svg>
