<svg xmlns="http://www.w3.org/2000/svg" xmlns:xlink="http://www.w3.org/1999/xlink" preserveAspectRatio="xMidYMid" width="674" height="670" viewBox="0 0 674 670">
  <defs>
    <style>
      .cls-1 {
        stroke: #fff;
        stroke-width: 2px;
        fill: none;
        fill-rule: evenodd;
      }
    </style>
  </defs>
  <g>
    <path d="M41.000,243.000 C41.000,243.000 67.256,168.369 113.000,122.000 " class="cls-1"/>
    <path d="M51.000,457.000 C51.000,457.000 29.252,409.875 28.000,317.000 " class="cls-1"/>
    <path d="M189.000,608.000 C189.000,608.000 126.800,571.696 90.000,521.000 " class="cls-1"/>
    <path d="M414.000,635.000 C414.000,635.000 364.256,647.798 256.000,635.000 " class="cls-1"/>
    <path d="M585.000,520.000 C585.000,520.000 568.240,554.680 482.000,609.000 " class="cls-1"/>
    <path d="M645.000,319.000 C645.000,319.000 647.032,390.960 620.000,458.000 " class="cls-1"/>
    <path d="M631.000,246.000 C596.487,156.309 561.000,126.000 561.000,126.000 " class="cls-1"/>
    <path d="M376.000,29.000 C376.000,29.000 443.388,35.775 506.000,76.000 " class="cls-1"/>
    <path d="M170.000,74.000 C170.000,74.000 210.194,42.247 301.000,28.000 " class="cls-1"/>
  </g>
</svg>
