<svg xmlns="http://www.w3.org/2000/svg" xmlns:xlink="http://www.w3.org/1999/xlink" preserveAspectRatio="xMidYMid" width="674" height="670" viewBox="0 0 674 670">
  <defs>
    <style>
      .cls-1 {
        fill: #000;
        stroke-width: 1px;
      }

      .cls-1, .cls-2 {
        stroke: #fff;
        fill-rule: evenodd;
      }

      .cls-2 {
        stroke-width: 3px;
        fill: none;
      }
    </style>
  </defs>
  <g>
    <g>
      <path d="M219.752,34.457 L237.654,27.902 L241.371,38.055 L223.469,44.609 L219.752,34.457 Z" class="cls-1"/>
      <path d="M212.694,30.827 L219.754,28.559 L226.767,50.388 L219.707,52.656 L212.694,30.827 Z" class="cls-1"/>
      <path d="M225.121,35.912 L234.688,32.998 L235.823,36.726 L226.257,39.640 L225.121,35.912 Z" class="cls-1"/>
      <path d="M234.694,22.827 L241.754,20.559 L248.767,42.388 L241.707,44.656 L234.694,22.827 Z" class="cls-1"/>
      <path d="M219.207,30.772 L236.061,24.788 L237.488,28.808 L220.634,34.792 L219.207,30.772 Z" class="cls-1"/>
      <path d="M223.207,43.772 L240.061,37.788 L241.488,41.808 L224.634,47.792 L223.207,43.772 Z" class="cls-1"/>
      <path d="M247.000,29.000 L253.000,27.000 L260.000,43.000 L214.000,60.000 L206.000,44.000 L214.000,41.000 " class="cls-2"/>
    </g>
    <g>
      <path d="M436.279,21.737 L443.104,24.635 L434.143,45.739 L427.317,42.840 L436.279,21.737 Z" class="cls-1"/>
      <path d="M436.028,40.000 L440.781,28.258 L456.844,34.760 L452.091,46.502 L436.028,40.000 Z" class="cls-1"/>
      <path d="M442.360,33.708 L451.504,37.756 L449.926,41.320 L440.782,37.271 L442.360,33.708 Z" class="cls-1"/>
      <path d="M458.157,30.063 L464.983,32.962 L456.021,54.065 L449.195,51.167 L458.157,30.063 Z" class="cls-1"/>
      <path d="M441.243,25.952 L457.909,32.441 L456.362,36.416 L439.696,29.927 L441.243,25.952 Z" class="cls-1"/>
      <path d="M435.773,38.405 L452.439,44.894 L450.891,48.869 L434.225,42.380 L435.773,38.405 Z" class="cls-1"/>
      <path d="M463.435,42.779 L469.283,45.187 L464.121,61.871 L418.197,44.667 L422.602,27.330 L430.617,30.289 " class="cls-2"/>
    </g>
    <g>
      <path d="M140.767,598.180 L135.265,593.209 L150.636,576.197 L156.138,581.168 L140.767,598.180 Z" class="cls-1"/>
      <path d="M133.451,569.503 L147.319,581.792 L139.606,590.292 L125.739,578.002 L133.451,569.503 Z" class="cls-1"/>
      <path d="M138.936,584.879 L131.619,578.062 L134.275,575.211 L141.592,582.027 L138.936,584.879 Z" class="cls-1"/>
      <path d="M122.815,583.156 L117.313,578.184 L132.684,561.172 L138.186,566.144 L122.815,583.156 Z" class="cls-1"/>
      <path d="M137.454,592.573 L123.827,580.990 L126.590,577.740 L140.217,589.323 L137.454,592.573 Z" class="cls-1"/>
      <path d="M146.697,582.594 L133.070,571.011 L135.832,567.761 L149.459,579.344 L146.697,582.594 Z" class="cls-1"/>
      <path d="M121.986,569.414 L117.248,565.225 L127.582,551.146 L165.354,582.424 L155.521,597.368 L148.914,591.950 " class="cls-2"/>
    </g>
    <g>
      <path d="M353.530,662.097 L346.136,661.805 L347.059,638.963 L354.454,639.255 L353.530,662.097 Z" class="cls-1"/>
      <path d="M329.659,643.956 L347.633,644.920 L347.302,657.311 L329.328,656.348 L329.659,643.956 Z" class="cls-1"/>
      <path d="M343.631,653.082 L333.666,652.537 L333.882,648.657 L343.847,649.202 L343.631,653.082 Z" class="cls-1"/>
      <path d="M330.168,662.059 L322.773,661.767 L323.696,638.925 L331.091,639.218 L330.168,662.059 Z" class="cls-1"/>
      <path d="M347.409,659.920 L329.560,659.755 L329.603,655.502 L347.451,655.667 L347.409,659.920 Z" class="cls-1"/>
      <path d="M348.124,646.377 L330.276,646.212 L330.319,641.959 L348.167,642.124 L348.124,646.377 Z" class="cls-1"/>
      <path d="M320.756,652.067 L314.446,651.887 L313.381,634.508 L362.323,634.330 L364.326,652.052 L355.800,652.123 " class="cls-2"/>
    </g>
    <g>
      <path d="M554.544,580.075 L548.585,584.462 L535.049,566.040 L541.008,561.652 L554.544,580.075 Z" class="cls-1"/>
      <path d="M524.000,581.535 L538.772,570.996 L547.010,580.455 L532.238,590.994 L524.000,581.535 Z" class="cls-1"/>
      <path d="M541.183,579.211 L533.058,585.004 L530.805,581.838 L538.930,576.045 L541.183,579.211 Z" class="cls-1"/>
      <path d="M536.268,594.628 L530.308,599.015 L516.772,580.593 L522.732,576.205 L536.268,594.628 Z" class="cls-1"/>
      <path d="M548.402,582.195 L534.355,593.207 L531.734,589.857 L545.781,578.845 L548.402,582.195 Z" class="cls-1"/>
      <path d="M540.508,571.168 L526.461,582.179 L523.840,578.830 L537.887,567.818 L540.508,571.168 Z" class="cls-1"/>
      <path d="M522.678,592.696 L517.636,596.493 L505.955,583.580 L544.083,552.893 L556.709,565.488 L550.092,570.866 " class="cls-2"/>
    </g>
  </g>
</svg>
